/* XPM */
static char *_73f1f39a1e14bd89a445e15ac90797cqtWjOqzqCYFMfDX6[] = {
/* columns rows colors chars-per-pixel */
"18 18 3 1 ",
"  c #DCE1E7",
". c #727890",
"X c #9FA5BD",
/* pixels */
"XXXXXXXXXXXXXXXXXX",
"XXXXXXXXXXXXXXXXXX",
"XXXXXXXXXXXXX.XXXX",
"XXXXXXXXXXXXX XXXX",
"XXXXXXXXXXXXXXXXXX",
"XXXXX..XXXXXXXXXXX",
"XXXXX..XXXXXXXXXXX",
"XXXXX  XXXXXXXXXXX",
"XXXXXXXXXXXXXXXXXX",
"XXXXXXXXXXXXXXXXXX",
"XXXXXXXXXXXXXXXXXX",
"XX.XXXXXXXXXXXXXXX",
"XX XXXXXXXXXX..XXX",
"XXXXXXXXXXXXX..XXX",
"XXXXXXXXX..XX  XXX",
"XXXXXXXXX..XXXXXXX",
"XXXXXXXXX  XXXXXXX",
"XXXXXXXXXXXXXXXXXX"
};
