/* XPM */
static char *aq2s7_9p7xh[] = {
/* columns rows colors chars-per-pixel */
"64 64 202 2 ",
"   c None",
".  c #160500",
"X  c #1B0A06",
"o  c #1E0E0B",
"O  c #1F100C",
"+  c #1E1315",
"@  c #1C151C",
"#  c #22120D",
"$  c #29170E",
"%  c #2A180F",
"&  c #251511",
"*  c #291710",
"=  c #271815",
"-  c #2D1B13",
";  c #2B1C19",
":  c #23181B",
">  c #311D15",
",  c #311F19",
"<  c #362116",
"1  c #35231B",
"2  c #3C261A",
"3  c #3A2519",
"4  c #2E201C",
"5  c #191722",
"6  c #1A1825",
"7  c #12172B",
"8  c #151A2E",
"9  c #191B2C",
"0  c #161C31",
"q  c #1D1F30",
"w  c #1E2235",
"e  c #1F2439",
"r  c #29242D",
"t  c #24212D",
"y  c #362721",
"u  c #372822",
"i  c #3A2A24",
"p  c #362A2A",
"a  c #3A2E2C",
"s  c #3C302F",
"d  c #21263B",
"f  c #23293C",
"g  c #272838",
"h  c #322E36",
"j  c #3E3332",
"k  c #35313B",
"l  c #442C1E",
"z  c #482F1F",
"x  c #50331F",
"c  c #452E21",
"v  c #482F20",
"b  c #443026",
"n  c #4D3424",
"m  c #443129",
"M  c #4B362A",
"N  c #4C382D",
"B  c #513522",
"V  c #533826",
"C  c #593B26",
"Z  c #52392A",
"A  c #5A3E2A",
"S  c #513728",
"D  c #4E3C34",
"F  c #403738",
"G  c #423939",
"H  c #493D3C",
"J  c #433633",
"K  c #533D32",
"L  c #513F38",
"P  c #5D412D",
"I  c #544037",
"U  c #5C4332",
"Y  c #55433C",
"T  c #5B473B",
"R  c #5F4A3F",
"E  c #62442E",
"W  c #68472E",
"Q  c #68482F",
"!  c #664730",
"~  c #664832",
"^  c #6A4B33",
"/  c #644C3B",
"(  c #6B4E39",
")  c #6E513C",
"_  c #71533C",
"`  c #282E43",
"'  c #272E42",
"]  c #2B3145",
"[  c #2D344A",
"{  c #3A3845",
"}  c #2F3750",
"|  c #333B54",
" . c #373F57",
".. c #433F49",
"X. c #3B445D",
"o. c #394057",
"O. c #3C4660",
"+. c #3F4964",
"@. c #4A464F",
"#. c #494247",
"$. c #574845",
"%. c #5C4A42",
"&. c #564B4C",
"*. c #594D4C",
"=. c #544643",
"-. c #4C4A56",
";. c #4E4C58",
":. c #474755",
">. c #554E51",
",. c #594F52",
"<. c #5B5255",
"1. c #5B535A",
"2. c #5F595B",
"3. c #5C514D",
"4. c #644F42",
"5. c #6C5343",
"6. c #69564C",
"7. c #655348",
"8. c #715542",
"9. c #745D4D",
"0. c #745B48",
"q. c #625552",
"w. c #6D5C53",
"e. c #615B5D",
"r. c #665957",
"t. c #715E54",
"y. c #756258",
"u. c #434E6B",
"i. c #434A62",
"p. c #4C526A",
"a. c #5E5963",
"s. c #565A6F",
"d. c #5E5D6C",
"f. c #565565",
"g. c #475372",
"h. c #495572",
"j. c #4D5876",
"k. c #4D5A79",
"l. c #5A5F75",
"z. c #525D7C",
"x. c #535973",
"c. c #635E61",
"v. c #605F6D",
"b. c #5A6077",
"n. c #5D6278",
"m. c #656065",
"M. c #6B6469",
"N. c #746B6A",
"B. c #796C65",
"V. c #7A706D",
"C. c #616275",
"Z. c #62657A",
"A. c #64697F",
"S. c #6C6B78",
"D. c #7A7576",
"F. c #806E63",
"G. c #83746A",
"H. c #837B79",
"J. c #566384",
"K. c #596585",
"L. c #586689",
"P. c #5C698A",
"I. c #596787",
"U. c #5E6E92",
"Y. c #636A85",
"T. c #636D8C",
"R. c #66718F",
"E. c #7B7B85",
"W. c #616F92",
"Q. c #657395",
"!. c #67759A",
"~. c #68769A",
"^. c #69799E",
"/. c #6A7696",
"(. c #727B95",
"). c #6A7BA1",
"_. c #817F82",
"`. c #7784A3",
"'. c #7989AA",
"]. c #838185",
"[. c #86868B",
"{. c #8A898E",
"}. c #8C8685",
"|. c #928C8B",
" X c #8A8C92",
".X c #868C9E",
"XX c #97979B",
"oX c #908E94",
"OX c #848DA3",
"+X c #9B9DA3",
"@X c #979DAB",
"#X c #8D9BB5",
"$X c #8C97AF",
"%X c #9AA2B1",
"&X c #A1A6AE",
"*X c #A5ABB4",
"=X c #A4ADBA",
"-X c #A6ACB5",
";X c #AAB2BF",
":X c #A1ADC1",
">X c #AAB5C6",
",X c #B0BBCA",
/* pixels */
"                                                                                                                                ",
"                                                                                                                                ",
"                                                                                                                                ",
"                                                                                                                                ",
"                                                                                                                                ",
"                                                                                                                                ",
"                                                                                                                                ",
"                                                                                                                                ",
"                        . .                                                                 . .                                 ",
"                  X X X X X X X o o o o o o o o o o o o o o o o o o o o o o o o o o o o X X X X X X                             ",
"                  = = = = = = = & & & # # # # # # # # # # # # # # # # # # # # # # & & & = = = = = = =                           ",
"                a j j j j j j s a y 1 > > > > > > > > > > > > > > > > > > > > > > 1 y a j j J j j j s p                         ",
"              s #.<.e.c.m.c.e.2.*.I M c l l l c c c c c c c c c c c c c c l l l n N Y *.e.c.m.c.e.2.>...p                       ",
"          X ; F <.D.]. X X X{._.V.w./ P C C A A A A A A A A A A A A A A A A C A U 4.y.V.].{. X X{.E.M.&.a &                     ",
"          o ; G e.].+X*X-X-X&XXX}.F.0.^ W W ^ ^ ^ ^ ^ ^ ^ ^ ^ ^ ^ ^ ^ ^ ^ ^ W ^ ( 9.G.|.+X*X=X-X&XXXD.<.j - X                   ",
"        # * 1 H e._.+X*X-X*X&XXX}.B.0.^ W W ^ ^ ^ ^ ^ ^ ^ ^ ^ ^ ^ ^ ^ ^ ^ Q W W ( 9.G.|.+X&X-X-X&XXXD.<.J 1 $ #                 ",
"      - > 3 c L q.N._.{. X X[.D.N.w./ A C C A A A A A A A A A A A A A A A A C A P 4.w.V._.[. X X[.D.M.*.D c 3 > -               ",
"o # * < l n Z I %.3.2.e.e.e.2.<.$.D M c l l l l l l l l l l l l l l l l l l l l c M I *.2.2.e.e.e.2.*.T K V n 2 > &             ",
"o # * 3 n A E U K N s a a a a a u 1 , > - - - - > - - > - - > > - - - - > - - - > 1 y i a a a a a m N K U E C c < & O           ",
"o # * 2 S E ^ E n 2 - & & & & & & # # # # # # # # # # # # # # # # # # # # # # # # # & & & & & & & - l C ! ^ P n 1 & O o         ",
"o # * 2 V ! ^ E n < # X X X X o o o o o o o o o o o o o o o o o o o o o o o o o o o o o o X X X X $ 2 V ! ^ E n 1 & O o         ",
"o # * 2 V ! ^ E n < # X X X X X o o o o o o o o o o o o o o o o o o o o o o o o o o o o X X X X X # 2 V ! ^ E n 1 & # o         ",
"o # * 2 S ! ^ E n 1 # o o o o o o # # # # # # # # O # # # # # # # # # # # # # # # O o o o o o o O * 2 V ! ^ E n < # # o         ",
"o # * 2 S W ^ E n 3 & # o o # # # # # # # # # # # # # # # # # # # # # # # # # # # # # # # # o o # * 2 C ! ^ E n < & # o         ",
"o # * 2 S ! ^ E n < # o o o o o o o O O # # # # O # # # # # # # # # # # # # # # # # o o o o o o O * 2 V ! ^ E n 1 & o o         ",
"o # * 2 V ! ^ E n > # X X X X X o o o o o o o o o o o o o o o o o o o o o o o o o o o o X X X X X # 2 V ! ^ E n 1 & o o         ",
"o # * 2 V ! ^ E n < # X X X X o o o o o o o o o o o o o o o o o o o o o o o o o o o o o o X X X o $ 2 V ! ^ E n 1 & o o         ",
"o # * 3 S E ^ ! S 2 - & & & & & & & # # # # # # # # # # # # # # # # # # # # # # # # & & & & & & & - c C ! ^ P n 1 & O o         ",
"o # * 3 n P ^ ~ U D m s s j s a i 1 1 > > > > > > > > > > > > > > > > > > > > > > 1 y i a s j s s J D U ~ ! A c < & O o         ",
"o # * < l A ! / 7.q.r.e.e.e.2.<.$.D M c l l l l l l l l l l l l l l l l l l l l c M I *.2.e.e.e.e.r.q.4./ E V l > & # o         ",
"o # & > l S U 5.y.D.].[. X{.[.D.N.w./ A C C C C C C A A A A A A A A C C C C V C P / w.V._.[. X{.[.H.V.t./ P n 2 - # # o         ",
"o # & - 3 z A 6.V.{.+X*X=X-X&XXX}.F.0.^ Q Q ^ ^ ^ ^ ^ ^ ^ ^ ^ ^ ^ ^ ^ ^ ^ ^ W ^ ( 9.G.|.+X*X=X-X&XXX}.B.4.C l < - # # o         ",
"o # # - > l Z 7.D.oX*X>X,X,X>X&X|.G.9._ ^ ) _ 8.8.) ) ( ( ( ( ( ( ) 5.8.8._ ) ^ _ y.H.XX*X>X,X,X>X&X{.B.%.n 2 > * # # o         ",
"o # # * > 2 M *.N. X%X:X>X>X=X@X{.G.0.) ( 5.t.t.w.6.4.R T T T T R 7.6.w.t.9.5.( ) y.G.oX%X:X>X>X=X@X[.M.Y b 3 - $ # # o         ",
"O # # $ - 1 b =.m.E.OX#X#X#X$X.XE.y.5./ / 6.M.M.m.1.&.#.H G G H #.>.2.M.M.r.6./ / 6.N._.OX#X#X#X#X.XE.e.H i < - # # # o         ",
"# # # # - < i H 1.A.(.`.'.'.`.(.S.q.T U %.e.C.A.n.f.:.{ k h h k { :.s.Z.A.M.q.T U %.e.S.(.`.'.'.`.(.C.>.J 2 > % # # # #         ",
"# # # # % - u G ;.n.Q.^.).).~.T.v.*.Y K $.a.A.T.K.h.o.] f d d f [ X.j.I.T.C.1.Y K Y <.C.R.~.).).~.T.l.-.j 1 - $ # # # #         ",
"# # # # $ - y F -.l.T.!.^.^.Q.Y.d.&.L K $.a.Y.T.L.g.o.` d e e f [ O.k.P.T.Z.1.Y K I ,.l.T.!.^.^.Q.P.s.@.j 1 - $ # # # #         ",
"# # # # % - y F -.l.T.!.^.^.Q.Y.d.&.L K $.a.Y.W.L.g. .` d e e f [ O.k.P.T.Z.1.Y K I ,.l.T.!.^.^.Q.P.s.@.j 1 - $ # # # #         ",
"# # # # % - y G -.l.T.!.^.^.Q.Y.d.&.L K $.a.Y.T.J.g.o.] f e e f [ O.k.P.T.Z.1.Y K Y <.n.T.!.^.^.!.T.s.@.j 1 - $ # # # #         ",
"# # # # % - y G ;.l.T.~.).^.!.T.d.*.I K $.a.A.T.L.g.o.] d d d f [ X.j.P.T.Z.1.Y K Y <.C.T.!.).^.!.T.s.@.j 1 - $ # # # O         ",
"# # # # % - y G ;.l.T.~.).^.!.T.d.*.I K $.a.A.T.L.g.o.] d e e f [ X.j.P.T.Z.1.Y K Y <.C.T.!.).^.!.T.s.@.j 1 - $ # # # +         ",
"# # # # % - y G ;.b.T.~.).^.!.T.d.*.Y K $.a.A.T.J.g. .` d w w d ] X.j.P.T.Z.1.Y K Y <.C.T.!.).^.!.T.s.@.j 1 - $ # # & + @ 9     ",
"# # # # % - y G ;.l.T.~.).^.!.T.d.*.Y K $.a.A.T.J.g. .` d w w d ] X.j.P.T.Z.1.Y K Y <.C.T.!.).^.!.T.s.@.j 1 - $ # # + @ 5 9 0 0 ",
"# # # # % - y G ;.b.T.~.).^.!.Y.d.*.I K $.a.A.T.L.g.o.] f d d ' [ O.k.P.T.Z.1.Y K Y <.C.T.!.).^.!.T.s.@.j 1 - $ # # + @ 6 9 0 0 ",
"# # # # % - y G ;.b.T.~.).^.!.Y.d.*.I K $.a.A.T.P.k.+.| [ [ [ }  .u.z.P.T.Z.1.Y K Y <.C.T.~.).^.!.T.s.@.j 1 - $ # & + @ 6 9 0 0 ",
"# # # # % - y G ;.b.T.~.).^.!.Y.d.*.I K $.a.Y.Q.U.J.j.u.+.O.O.+.u.k.L.W.T.Z.1.Y K Y <.C.T.~.).).!.T.s.@.j 1 - $ # & + @ 6 9 0 0 ",
"# # # # % - y G ;.b.T.~.).^.!.Y.d.*.I K $.a.Y.Q.Q.U.J.z.z.k.k.z.J.L.U.Q.Q.Z.1.Y K Y <.C.T.~.).^.!.T.s.@.j 1 - $ # & + @ 6 9 0 0 ",
"# # # # % - y G ;.b.T.~.).^.!.Y.d.*.I K =.a.A.Q.!.Q.W.P.P.P.P.P.P.W.Q.!.T.C.1.Y K Y <.C.T.!.).^.!.T.s.@.j 1 - $ # & + @ 6 9 0 0 ",
"# # # # % - y G ;.b.T.~.).^.!.T.d.*.I K =.1.C.Y.T.T.T.T.T.T.T.T.T.T.T.T.Y.d.,.Y K Y <.C.T.!.).).!.T.s.@.j 1 - $ # # + @ 6 9 0 0 ",
"# # # # % > u G ;.b.T.~.).^.!.T.d.*.I Z Y &.a.d.C.C.C.C.C.C.C.C.C.C.C.C.d.1.$.L K Y <.C.T.!.).).!.T.s.@.j 1 - $ # # + @ 6 9 0 0 ",
"# # # # % > u G ;.b.T.~.).^.!.T.d.,.I Z Z Y &.,.<.1.1.1.1.1.1.1.1.1.1.<.,.$.Y Z Z Y 1.C.T.!.).^.!.T.s.@.j 1 - $ # # + @ 6 9 0 0 ",
"# # # # % - y G ;.b.T.~.).^.!.T.d.,.I Z S Z L Y Y Y Y Y Y Y Y Y Y Y Y Y Y K Z S Z Y 1.C.T.~.).^.!.T.s.@.j 1 - $ # # + @ 6 9 0 0 ",
"O & & & * - y F -.l.T.~.).^.!.T.d.,.Y Z n n S Z Z Z Z Z Z Z Z Z Z Z Z Z Z S B B Z Y 1.C.T.~.).^.!.T.s.@.j 1 - $ # & + @ 6 9 0 0 ",
"+ + : : & * 1 j -.l.R.^.).).~.T.v.,.Y V B x B B B B B B B B B B B B B B B B x B Z Y 1.Z.R.^.).).~.T.s.@.a 1 * & : @ @ 5 9 9 0 0 ",
"5 @ @ @ & = 4 j -.l.Q.^.).).~.T.C.<.Y V B x B B B B B B B B B B B B B B B x x B Z Y 1.Z.R.^.).).^.T.s.#.p ; & & @ @ 6 9 9 8 0 0 ",
"9 9 6 @ + & ; a :.l.R.^.).).~.T.C.<.Y V B B B B B B B B B B B B B B B B B B B B Z Y 1.Z.R.^.).).~.T.s...p = & + @ 6 9 9 9 0 0 0 ",
"0 9 9 5 @ + : p @.x.P.Q.^.!.Q.Y.d.>.L M n n n n n n n n n n n n n n n n n n n n N Y 1.l.T.Q.!.!.Q.K.p.{ r : + @ 5 9 9 0 0 0 0 0 ",
"0 0 9 6 @ @ : r { i.z.J.L.L.J.x.f.#.J m c c b m m m b b m m m m m m b b m b c c m H @.f.z.J.L.L.J.j.:.{ r : @ 5 9 0 0 0 0 0 0 0 ",
"0 0 0 9 5 5 6 t ]  .+.u.u.u.u.i.o.{ j p p p p p p p p p p p p p p p p p p p p p p k { o.i.u.u.u.u.O.| g t 6 5 5 9 0 0 0 0 0 0 0 ",
"0 0 0 9 9 9 9 w f ` [ } | } } [ ] g r r r r r r r r r r r r r r r r r r r r r r r g g ] [ } | | } [ ` d 9 9 9 9 9 0 0 0 0       ",
"0 0 0 0 9 9 9 q w e e d d e d e w w w q q 9 q q q q q q q q q q q q q q q q 9 9 q w w e e d d d d e w q q 9 9 9 0 0 0 0         ",
"0 0 0 0 0 0 0 0 0 0 0 0 0 0 0 0 0 0 0 0 0 0 0 0 0 0 0 0 0 0 0 0 0 0 0 0 0 0 0 0 0 0 0 0 0 0 0 0 0 0 0 0 0 0 0 0 0 0 0 0         ",
"0 0 0 0 0 0 0 0 9 9 7 7 7 7 7 7 8 9 0 0 0 0 0 0 0 0 0 0 0 0 0 0 0 0 0 0 0 0 0 0 0 0 8 8 7 7 7 7 7 8 9 0 0 0 0 0 0 0 0 0         "
};
