/* XPM */
static char *afn5h_qyvy4[] = {
/* columns rows colors chars-per-pixel */
"64 64 209 2 ",
"   c None",
".  c #1D0C06",
"X  c #1D0E0B",
"o  c #1F100C",
"O  c #1E1314",
"+  c #1C151C",
"@  c #1E181F",
"#  c #200F0B",
"$  c #22120D",
"%  c #29170D",
"&  c #2A180F",
"*  c #261511",
"=  c #281711",
"-  c #2C1A12",
";  c #2A1D1B",
":  c #251817",
">  c #321E15",
",  c #311F18",
"<  c #362016",
"1  c #392317",
"2  c #33241C",
"3  c #3C261A",
"4  c #3D281D",
"5  c #2F201B",
"6  c #1A1722",
"7  c #1A1825",
"8  c #151A2E",
"9  c #1A1B2D",
"0  c #171C31",
"q  c #1A1E31",
"w  c #2A1F20",
"e  c #1F202F",
"r  c #1D2133",
"t  c #1F2439",
"y  c #2C252C",
"u  c #2B242A",
"i  c #342623",
"p  c #372821",
"a  c #3C2B25",
"s  c #3B2D2A",
"d  c #33282A",
"f  c #21263B",
"g  c #23293D",
"h  c #262736",
"j  c #352D33",
"k  c #3E3332",
"l  c #3B343C",
"z  c #3B343B",
"x  c #3C302D",
"c  c #462C1C",
"v  c #472D1C",
"b  c #4C311F",
"n  c #51341F",
"m  c #4A3223",
"M  c #46342B",
"N  c #513523",
"B  c #553926",
"V  c #5A3C26",
"C  c #543B2B",
"Z  c #5C3E29",
"A  c #503728",
"S  c #4C3B34",
"D  c #42383A",
"F  c #463938",
"G  c #533E34",
"H  c #503F3A",
"J  c #402F2B",
"K  c #5F412C",
"L  c #55423B",
"P  c #5E493C",
"I  c #584337",
"U  c #64442C",
"Y  c #68472F",
"T  c #6B4B32",
"R  c #664A36",
"E  c #714F34",
"W  c #745135",
"Q  c #755339",
"!  c #78583F",
"~  c #78573C",
"^  c #242A40",
"/  c #2D344A",
"(  c #2A3045",
")  c #393846",
"_  c #333B53",
"`  c #373E56",
"'  c #423C44",
"]  c #423E49",
"[  c #3A425B",
"{  c #3D4762",
"}  c #45424C",
"|  c #4B464E",
" . c #494044",
".. c #584C4D",
"X. c #564846",
"o. c #444554",
"O. c #4A4752",
"+. c #4C4955",
"@. c #4B4B59",
"#. c #43485B",
"$. c #5A4F51",
"%. c #534D56",
"&. c #5B5156",
"*. c #5B545B",
"=. c #555059",
"-. c #695448",
";. c #765740",
":. c #795940",
">. c #745945",
",. c #645959",
"<. c #6D5749",
"1. c #7A6455",
"2. c #746155",
"3. c #444C65",
"4. c #4A4E63",
"5. c #444E69",
"6. c #46516D",
"7. c #4B536C",
"8. c #4E5265",
"9. c #5D5964",
"0. c #565A6E",
"q. c #5D5D6C",
"w. c #555566",
"e. c #475372",
"r. c #4B5673",
"t. c #4D5877",
"y. c #4E5B7A",
"u. c #555C73",
"i. c #5B5E73",
"p. c #535E7B",
"a. c #655D63",
"s. c #5B6175",
"d. c #5B627B",
"f. c #56607C",
"g. c #796B64",
"h. c #736765",
"j. c #616273",
"k. c #62657B",
"l. c #6B6B7A",
"z. c #636A7D",
"x. c #786F70",
"c. c #806550",
"v. c #836955",
"b. c #856D5A",
"n. c #89705E",
"m. c #8D7D72",
"M. c #827673",
"N. c #907E71",
"B. c #85756C",
"V. c #948377",
"C. c #93847A",
"Z. c #596584",
"A. c #5D6A8B",
"S. c #596685",
"D. c #5F6E91",
"F. c #636A85",
"G. c #636D8B",
"H. c #666A80",
"J. c #66708E",
"K. c #6A7389",
"L. c #797986",
"P. c #626F91",
"I. c #657294",
"U. c #667599",
"Y. c #68779A",
"T. c #69799E",
"R. c #6E7792",
"E. c #727D99",
"W. c #6A7BA1",
"Q. c #7F8699",
"!. c #7382A4",
"~. c #8A868A",
"^. c #988A81",
"/. c #918D8E",
"(. c #838B9C",
"). c #8C8D96",
"_. c #959191",
"`. c #9F9895",
"'. c #9C9798",
"]. c #96908F",
"[. c #A39E9C",
"{. c #A19996",
"}. c #A5A09F",
"|. c #838DA3",
" X c #8A94A4",
".X c #8592AC",
"XX c #959BA9",
"oX c #8796B3",
"OX c #979FB0",
"+X c #9BA6BA",
"@X c #A6A3A3",
"#X c #A6A6A9",
"$X c #A5AAB4",
"%X c #ABAEB3",
"&X c #A6AEB9",
"*X c #AFB1B6",
"=X c #AFB3BA",
"-X c #B1B5BB",
";X c #B3B8BE",
":X c #9EABC2",
">X c #ACB5C3",
",X c #AFBBCA",
"<X c #B5BDC7",
"1X c #B6BEC9",
"2X c #B8BFC8",
"3X c #B7C0CB",
"4X c #B9C2CB",
"5X c #BBC5D1",
"6X c #BDC8D3",
/* pixels */
"                                                                                                                                ",
"                                                                                                                                ",
"                                                                                                                                ",
"                                                                                                                                ",
"                    X X X . . . . . . . . X X X X X X X X X X X X X X X X X X X X X X X X X X X . . . . . . . X X X             ",
"                  $ $ $ $ $ $ $ $ $ $ $ $ $ $ $ $ $ $ $ $ $ $ $ $ $ $ $ $ $ $ $ $ $ $ $ $ $ $ $ $ $ $ $ $ $ $ $ $ $ $           ",
"                % % * * : ; ; w w w w ; ; : = * * * * * * * * * * * * * * * * * * * * * * = : ; ; w w w w ; ; ; : * * %         ",
"              = - - > 2 i j z l l ) l z j d 2 > > > > > > > > > > > > > > > > > > > > > > 2 i d j l l ) l z j d 2 , - - =       ",
"            $ = > < 4 s D } @.4.4.4.4.@.} D s 4 3 3 3 3 3 3 3 3 3 3 3 3 3 3 3 3 3 3 3 3 4 a D ] o.4.4.4.4.@.} D J a 1 > - % $ X ",
"          $ $ - > 3 m S ..w.d.S.A.A.S.d.w...H m m b m m m m m m m m m m m m m m m m b b m S X.w.s.S.A.A.A.d.q.$.L M c 1 - % $ X ",
"        X $ % - 1 v C P ,.l.R.E.!.!.E.R.l.,.X.C B N B B B B B B B C B B B B B B B B N B C I ,.j.R.E.!.!.!.R.H.a.X.C m 3 - % $ X ",
"        X $ % - 3 m K -.h.L.(..XoXoXoX|.L.h.-.R K Z K K K K K K K K K K K K K K K K Z Z U -.2.L.(..XoXoXoX|.L.x.<.I N c > * $ X ",
"        X $ % > c N R >.B.~.XX+X:X:X+XOX).M.2.E Y Y Y T T T T T T T T T T T T T T T Y Y T >.g.~.XX+X:X:X+XOX).M.2.E Z v < = $ X ",
"        X o * > c V T 1.m.'.$X>X,X1X>X$X'.m.1.Q T T T E E E E E E E E E E E E E E T T T Q 1.B._.#X>X,X,X>X$X'.C.v.Q K b < - $ X ",
"        X o * > v Z Q v.V.[.*X1X5X5X1X=X[.C.v.! W E W Q Q Q Q Q Q Q Q Q Q Q Q W Q W E W ~ c.m.`.%X<X5X5X3X-X@X^.b.;.U m 1 - $ X ",
"        X o * < v Z Q v.V.[.-X4X6X6X4X-X}.V.b.:.W W W Q Q Q Q Q Q Q Q Q Q Q Q Q Q W W W ~ c.N.{.*X4X6X6X4X;X@X^.n.;.U m 1 - $ X ",
"        X o * > v Z Q v.V.[.-X4X6X6X4X-X}.V.b.:.W W W Q Q Q Q Q Q Q Q Q Q Q Q Q Q W W W ~ c.N.{.*X1X6X6X4X;X@X^.n.;.U b 1 - $ X ",
"        X o * > v Z Q v.V.[.*X1X5X5X3X-X[.C.v.:.W W W Q Q Q Q Q Q Q Q Q Q Q Q Q Q W W W Q c.m.`.%X<X5X5X4X-X@X^.b.;.U b 1 = $ X ",
"        X $ * > v Z Q v.V.[.*X1X5X5X1X-X[.C.v.:.W E W Q Q Q Q Q Q Q Q Q Q Q Q Q Q W E W Q c.m.`.%X<X5X5X3X-X@X^.b.;.U b 1 - $ X ",
"        X $ * < v Z Q v.V.[.*X1X5X5X1X-X[.C.v.:.W E W Q Q Q Q Q Q Q Q Q Q Q Q Q Q W E W Q c.m.`.%X<X5X5X3X-X@X^.b.;.U b 1 - $ X ",
"        X o * < v Z Q v.V.[.*X1X5X5X1X-X[.C.v.:.W E W Q Q Q Q Q Q Q Q Q Q Q Q Q Q W E W Q c.m.`.%X<X5X5X4X-X@X^.b.;.U b 1 - $ X ",
"        X o * > v Z Q v.V.[.*X1X5X5X1X-X[.C.v.:.W E W Q Q Q Q Q Q Q Q Q Q Q Q Q Q W W W Q c.m.`.%X<X5X5X4X-X@X^.b.;.U m 1 - $ X ",
"        X X * > v Z Q v.V.[.*X1X5X5X3X-X[.C.v.:.W E W Q Q Q Q Q Q Q Q Q Q Q Q Q Q W W W Q c.m.`.%X<X5X5X4X-X@X^.n.;.U m 1 - $ X ",
"        X X * > v Z Q v.V.[.-X4X6X6X4X-X}.V.b.:.W W W Q Q Q Q Q Q Q Q Q Q Q Q Q Q W W W ~ c.N.{.*X2X6X6X4X-X@X^.n.;.U m 1 - $ X ",
"        X o * < v Z Q v.V.[.-X4X6X6X4X-X}.V.b.:.W W W Q Q Q Q Q Q Q Q Q Q Q Q Q Q W W W ~ c.N.{.*X2X6X6X4X;X@X^.n.;.U b 1 - $ X ",
"        X o * > v Z Q v.V.[.*X1X5X5X1X=X[.C.v.! W E W W W W Q W Q W W Q Q Q Q Q W W E W ~ 1.m.`.%X<X5X5X3X-X@X^.b.;.U b 1 - $ X ",
"        X o * > c V T 1.m.'.$X>X,X,X>X$X'.m.1.Q T T T E E E E E E E E E T E E E E T T T Q 1.B.].#X>X,X,X>X$X'.C.v.Q K b < = $ X ",
"        X o % > c N U >.g.~.XX+X+X+X+XXX~.x.>.T U U U Y Y Y Y Y Y Y Y Y Y Y Y Y Y U U U T <.g.~. X+X+X+X+XOX).M.2.R B c > = $ X ",
"        X $ % - 1 b Z -.h.L.Q..XoXoX.X(.L.h.-.K V V V V V V V V V V V V V V V V V V V V K R ,.x.Q..XoXoX.X|.L.h.-.K m c > % $ X ",
"        X $ % - 1 v C P ,.l.R.E.!.!.!.R.l.,.X.C B B B C C C C C C C C C C C C C C B B B C P ,.j.R.E.!.!.!.R.H.a.X.C m 3 > * $ X ",
"        X $ * - 3 M G ..9.k.G.U.T.T.Y.J.k.9...L I I I P P P P P P P P P P P P P P P I I L X.*.j.G.U.T.T.Y.I.z.9...L M 4 > * $ X ",
"        X $ * ; s F ..9.j.F.P.U.Y.Y.U.I.F.i.9.&.&.,.2.h.g.g.g.g.g.g.g.g.g.g.g.g.g.2.,.,.&.*.q.k.G.I.Y.Y.U.I.F.j.9.$. .k i = $ X ",
"        . X = i z +.q.k.F.J.I.U.U.U.U.I.G.F.k.j.l.x.~.~._._._._._._._._._._._._./.~.L.l.j.k.F.G.I.U.U.U.U.I.I.G.k.i.=.' d : $ . ",
"        . X = d ] 8.d.G.I.I.I.U.U.U.U.I.I.G.G.J.R.(.XX#X%X%X%X%X$X$X$X$X$X%X%X%X$XXX(.E.K.G.G.I.I.I.U.U.U.I.I.I.J.F.0.} j ; $ . ",
"        . X = d ) 8.d.G.G.I.P.P.P.I.P.P.G.A.A.G.R.(.XX$X&X&X&X$X$X$X$X$X$X$X&X&X$XOX|.E.J.F.A.G.G.P.I.P.P.P.P.I.G.Z.0.} j ; $ . ",
"        . # = u z o.8.u.d.d.Z.Z.Z.Z.Z.Z.f.u.u.u.k.K.Q. X X X X(.(.(.(.(.(. X X X X(.L.z.u.u.u.p.Z.Z.Z.Z.Z.Z.Z.d.u.w.@.) d : $ . ",
"        X $ * ; d z } O.4.7.r.t.t.t.t.r.7.@.o.O.%.q.k.K.K.K.z.s.s.s.s.s.s.k.H.K.K.z.q.=.O.o.@.4.r.t.t.t.t.r.7.4.O.} l d w = $ X ",
"        X $ $ * ; i s z ] #.3.6.e.e.6.3.#.) z k D } 4.7.7.7.#.[ ` _ _ _ [ #.3.7.7.8.O.D k k ) o.3.6.e.e.6.5.#.} z s p 5 : * $ $ ",
"        O $ $ % - - 2 s z o.3.6.r.r.6.3.o.l s a x ) #.3.3.[ _ ( g f f g ( / [ { 3.@.] k a s z } 3.6.e.r.6.3.#.) s 2 > - * $ $ $ ",
"      + O * $ % % - < a l o.7.t.y.y.t.7.@.' J a J ' @.7.5.[ / g r r r r f / [ 3.6.4.} D a s D o.7.t.y.y.t.7.#.] s 2 - % % $ $ $ ",
"0 0 9 6 + O $ % % - 2 s ] 4.u.Z.A.A.Z.p.8.| S M S | 8.p.t.{ _ ^ t r q r g / { r.p.0.+.F M M  .=.u.Z.A.A.Z.p.8.} k 2 - % % $ $ o ",
"0 0 9 7 + O $ % % - 2 x | w.Z.I.U.U.I.F.q.$.H S L =.i.S.Z.r.[ / g f t g ( ` 6.f.S.d.*.X.S G X.9.Z.P.I.U.I.A.u.O.k i - & % $ $ o ",
"0 0 8 7 + O * % % - 2 k | 0.G.U.T.T.U.G.s.&.L G L *.k.G.A.p.3.` / ( ( / _ { t.S.G.z.9.X.G I ..q.F.I.T.W.Y.G.i.@.D p - & % $ $ o ",
"0 0 8 7 + O * % % - 2 k O.u.G.Y.W.W.Y.J.j.&.L G L *.k.I.I.S.t.5.{ [ [ { 3.r.Z.P.I.H.9.X.G L ..q.G.Y.W.W.T.I.d.@.D p - & % $ $ o ",
"0 0 9 7 + O $ % % - 2 k O.u.G.Y.W.W.Y.J.j.&.L G L *.k.I.U.D.S.f.y.t.t.t.p.S.D.I.I.H.9.X.G L ..q.G.Y.W.W.T.J.d.@.D p - & % $ $ $ ",
"0 0 9 7 + O $ % % - 2 k | 0.G.U.W.W.Y.G.j.&.L G L *.j.G.I.I.I.A.A.A.A.A.A.P.I.I.I.k.9.X.G L ..q.G.I.T.W.Y.G.s.@.D p - & % $ $ $ ",
"0 0 9 7 + O $ % % - 2 k | 0.G.U.W.W.U.G.j.&.L G L $.q.F.G.G.G.G.G.G.G.G.G.G.G.G.F.i.&.L G L ..q.F.I.T.W.Y.G.s.@.D p - & % $ $ $ ",
"0 0 9 7 + O $ % % - 2 k | 0.G.U.W.W.U.G.j.&.L C G X.*.9.q.j.j.j.j.j.j.j.j.j.j.i.q.*.X.L C I ..q.G.I.T.W.Y.G.s.@.D p > & % $ $ # ",
"0 0 9 7 + O $ % % - 2 k O.0.G.U.T.W.U.G.j.*.L C C G X...$.$.$.$.$.$.$.$.$.$.$.$...X.L C C L $.q.F.I.T.W.Y.G.s.@.D p - & % $ $ # ",
"0 0 9 7 + O * % % - 2 k | 0.G.U.T.W.U.G.j.*.L C N C C G G G G G G G G G G G G G G C C N C L $.q.F.I.T.W.Y.G.s.@.D p - & % $ $ $ ",
"0 0 9 9 6 + * * % - 2 k | 0.G.Y.W.W.Y.G.j.*.L C N N N N N N N N N N N N N N N N N N m m C L $.q.G.I.T.W.Y.G.i.+.z i - * * * * O ",
"0 0 8 9 7 6 + * * = ; s } 0.G.Y.W.W.T.J.k.*.L C N n n N N N N N N N N N N N N N N N n N B L &.j.G.Y.W.W.T.I.i.O.k 2 - * * + + + ",
"0 0 0 9 9 7 6 + O * : d } 0.G.T.W.W.T.I.k.*.L C N n N N N N N N N N N N N N N N N N n N B L &.j.G.Y.W.W.T.I.i.O.j ; * O + 6 7 7 ",
"0 0 0 0 8 8 9 6 + O = d ] w.S.U.T.W.U.G.j.*.L C m m m N N N N N N m m m N N N N N m m m A L $.q.F.I.T.W.Y.G.u.o.j ; * O 6 9 9 9 ",
"0 0 0 0 0 0 8 7 + O : u ) 4.p.A.D.D.A.Z.0.%.H M m m m m m m m m m m m m m m m m m m m m M S ..w.d.A.D.D.A.Z.7.) y : O + 6 9 0 0 ",
"0 0 0 0 0 0 0 9 6 + + u j ` 5.r.t.t.r.6.#.] z s s a s s s s s s s s s s s s s s s s a a s k ] #.5.r.r.t.r.6.[ ) y 6 + 6 9 0 0 0 ",
"      0 0 0 0 8 9 7 7 9 h ( _ ` ` ` ` _ / ( j y y u y y y y y y y y y y y y y y y y y y y h j / _ ` ` ` ` _ / g h 9 7 9 8 0 0 0 ",
"        0 0 0 0 8 9 9 q r t f g ^ ^ g f f f r r 9 9 9 9 9 9 9 9 r r r r 9 9 9 9 e e e e r r f f f g ^ ^ g f t r q 9 9 8 8 0 0 0 ",
"          0 0 0 0 0 0 0 0 0 0 0 0 0 q q 0 0 0 0 q q q q 0 0 0 0 q 0 q 0 0 0 0 0 q q q q 0 0 0 0 0 0 q q 0 0 0 0 0 0 0 0 0 0 0 0 ",
"            0 0 0 0 0 0 0 8 8 8 8 8 8 8 8 0 0 0 0 0 0 0 0 0 0 0 0 0 0 0 0 0 0 0 0 0 0 0 0 0 0 8 8 8 8 8 8 8 8 0 0 0 0 0 0 0 0 0 ",
"                        0 8 8 8 8 8 8 8 8 0 0 0 0 0 0 0 0 0 0 0 0 0 0 0 0 0 0 0 0 0 0 0 0 0 0 8 8 8 8 8 8 8 8 0 0               ",
"                        0 0 0 0 0 0 0 0 0 0 0 0 0 0 0 0 0 0 0 0 0 0 0 0 0 0 0 0 0 0 0 0 0 0 0 0 0 0 0 0 0 0 0 0                 ",
"                          0 0 0 0 0 0 0 0 0 0 0 0 0 0 0 0 0 0 0 0 0 0 0 0 0 0 0 0 0 0 0 0 0 0 0 0 0 0 0 0 0 0                   ",
"                          0 0 0 0 0 0 0 0 0 0 0 0 0 0 0 0 0 0 0 0 0 0 0 0 0 0 0 0 0 0 0 0 0 0 0 0 0 0 0 0 0 0                   "
};
