/* XPM */
static char *az4dq_l62gv[] = {
/* columns rows colors chars-per-pixel */
"64 64 124 2 ",
"   c None",
".  c #16142A",
"X  c #18162B",
"o  c #1C1A2E",
"O  c #1E1C30",
"+  c #211F33",
"@  c #242236",
"#  c #272538",
"$  c #282639",
"%  c #2F2D3F",
"&  c #302F41",
"*  c #343243",
"=  c #383647",
"-  c #393748",
";  c #3D3B4C",
":  c #403F4F",
">  c #413F50",
",  c #444353",
"<  c #484756",
"1  c #4A4857",
"2  c #494758",
"3  c #4C4B59",
"4  c #504E5D",
"5  c #54535F",
"6  c #555361",
"7  c #585765",
"8  c #5B5967",
"9  c #5D5B69",
"0  c #605F6B",
"q  c #62616E",
"w  c #666571",
"e  c #686772",
"r  c #6B6975",
"t  c #6F6E79",
"y  c #74737E",
"u  c #787781",
"i  c #7D7C84",
"p  c #807F88",
"a  c #83838C",
"s  c #88878F",
"d  c #8C8B93",
"f  c #929297",
"g  c #94949A",
"h  c #98979C",
"j  c #9A9A9D",
"k  c #9E9DA2",
"l  c #A2A2A6",
"z  c #A5A5AA",
"x  c #A8A7AB",
"c  c #AAAAAD",
"v  c #ADADB1",
"b  c #B2B2B5",
"n  c #B7B7B9",
"m  c #BDBDBE",
"M  c #BEBEC1",
"N  c #C3C3C4",
"B  c #C8C8C7",
"V  c #C7C7C8",
"C  c #CBCBCB",
"Z  c #CACACA",
"A  c #C9C9C9",
"S  c #C8C8CD",
"D  c #CBCBCC",
"F  c #CBCACE",
"G  c #CBCBCF",
"H  c #CCCCCC",
"J  c #CDCDCC",
"K  c #CCCCCD",
"L  c #CDCDCD",
"P  c #CDCDCE",
"I  c #CECECE",
"U  c #CCCCCC",
"Y  c #D0D0CF",
"T  c #D0D0D0",
"R  c #D0D1D0",
"E  c #D1D1D0",
"W  c #D1D1D1",
"Q  c #D2D2D1",
"!  c #D1D1D2",
"~  c #D2D2D2",
"^  c #D2D3D2",
"/  c #D3D3D2",
"(  c #D3D3D3",
")  c #D4D4D3",
"_  c #D4D5D3",
"`  c #D4D4D4",
"'  c #D4D5D4",
"]  c #D5D5D4",
"[  c #D5D5D5",
"{  c #D6D6D5",
"}  c #D6D6D6",
"|  c #D7D7D6",
" . c #D7D7D7",
".. c #D2D2D2",
"X. c #D8D8D7",
"o. c #D6D6DA",
"O. c #D7D7DA",
"+. c #D8D7DB",
"@. c #D9D9D8",
"#. c #DADAD9",
"$. c #D9D9DA",
"%. c #DCDDDB",
"&. c #DBDBDC",
"*. c #DDDDDD",
"=. c #DEDEDD",
"-. c #D9D9D8",
";. c #E0E0DF",
":. c #E5E5E4",
">. c #E5E5E6",
",. c #EDEDEC",
"<. c #EDEDED",
"1. c #EFEFF1",
"2. c #F1F1F0",
"3. c #F0F0F1",
"4. c #F1F1F2",
"5. c #F2F2F2",
"6. c #F2F2F3",
"7. c #F3F4F2",
"8. c #F4F4F2",
"9. c #F4F4F3",
"0. c #F4F5F3",
"q. c #F4F4F4",
"w. c #F7F7F6",
"e. c #F7F7F7",
/* pixels */
"                                                                                                                                ",
"                                                                                                                                ",
"                                                                                                                                ",
"                                                                                                                                ",
"                                                                                                                                ",
"                                                                                                                                ",
"                                                                                                                                ",
"                                                                                                                                ",
"                                                o o o o o o o o O                                                               ",
"                                              - < 1 1 1 1 1 1 1 ,                                                               ",
"                                            X 4 f z z z z z z l p -                                                             ",
"                                            , y m | | X.X.@.| ) v r 2                                                           ",
"                                        . , s b C | | X.X.X.| ( ( D g *                                                         ",
"                                        : e b ) ( m x l z z v N ;.e.M e ,                                                       ",
"                                      = i c C | H f 6 < 1 < q c | *.&.D a $                                                     ",
"                                    ; 9 z ( ( N l r # . o . - a c V >.3.v 9 >                                                   ",
"                                  * y z N ( ( k 7 -           : r b X.*.@.N y @                                                 ",
"                                . * s H ) N c y &             . , d b H 3.e.a @                                                 ",
"                                . * s H | v q ;                   < u N 3.3.a @                                                 ",
"                                . * s C | l : .                   o 8 M 8.1.a @                                                 ",
"                                . * s C | l > .                   O 9 M 8.1.a @                                                 ",
"                                . * s C ) l : .                   O 9 M 8.3.a @                                                 ",
"                                . * s C Y k ; .                   o 8 M 8.3.a @                                                 ",
"                                . * s C Y c q ;                   < u N ,.>.i @                                                 ",
"                                . * s H ( N c y &             . , d b H %.H t @                                                 ",
"                                  * y z N ( ( k 7 -           : r b | ( m j 9 @                                                 ",
"                                    ; 9 z ( ( N l r # . o . - p v C | C d 3 =                                                   ",
"                                      = i c C | H f 6 < < < q c ( ( N l w #                                                     ",
"                                        : e b | ( M z k k l v N ) Y k 6 -                                                       ",
"                                        . , s b D | | ( H ( | ) N z y %                                                         ",
"                                            , y m | ( ( ( ( ) ( c 0 ;                                                           ",
"                                            X 3 f n H ( ( ( N v a -                                                             ",
"                                              * 1 a N ( ( ( b r >                                                               ",
"                                                + w m ( ( @.b 3 .                                                               ",
"                                                @ w m ( | ,.D 6 X                                                               ",
"                                                @ e m Y | e.O.9 X                                                               ",
"                                                @ e m Y | e.O.9 X                                                               ",
"                                                @ e m Y | e.O.8 X                                                               ",
"                                                @ e m Y | e.O.8 X                                                               ",
"                                                @ e m Y | e.O.9 X                                                               ",
"                                                @ e m ( | e.O.8 X                                                               ",
"                                                @ e m ( | ,.D 7 X                                                               ",
"                                                @ e m ( ( @.b 3 o                                                               ",
"                                                @ e m ( ( Y z 1 o                                                               ",
"                                                @ e m ( ( Y z 3 o                                                               ",
"                                                @ e m ( ( ( x 1 X                                                               ",
"                                                @ e m ( ( ( x 1 X X o o O O                                                     ",
"                                                @ e m ( ( ( b r < 1 3 3 < : =                                                   ",
"                                                @ e m ( ( ( V b z z c x j i 3 @                                                 ",
"                                                @ e m ( ( ( ( | ( C m c h i 3 @                                                 ",
"                                                @ e m ( ( ( ( ) C b s 6 , ; =                                                   ",
"                                                @ e m ( ( ( ( ( C b a 5 ; ; =                                                   ",
"                                                @ w m ( ( ( ( ( H N n z f u 3 @                                                 ",
"                                                @ w m ( ( ( ( ( ( ( | | N j 5 @                                                 ",
"                                                @ w m ( ( ( ( ( ( ( | ) N j 5 @                                                 ",
"                                                @ w m ( ( ( ( ( ) ) ( N z i 3 @                                                 ",
"                                                @ e m ( ( ( ( | | | C c y , *                                                   ",
"                                                @ e N ( ( | D b z z h i 5 @                                                     ",
"                                                @ e N ) ( @.m t < 1 < ; =                                                       ",
"                                                @ 9 j M H m f < X X o O                                                         ",
"                                                  = 4 h N i <                                                                   ",
"                                                    # y h 7 X                                                                   ",
"                                                      , 1 ;                                                                     ",
"                                                      o o                                                                       "
};
