/* XPM */
static char *result[] = {
/* columns rows colors chars-per-pixel */
"64 64 12 1 ",
"  c #2F2F2E",
". c #7E3030",
"X c #983636",
"o c #804020",
"O c #A06040",
"+ c #2F5489",
"@ c #255190",
"# c #285DAA",
"$ c #9299A4",
"% c gray69",
"& c white",
"* c None",
/* pixels */
"****************************************************************",
"****************************************************************",
"****************************************************************",
"****************************************************************",
"****************************************************************",
"****************************************************************",
"****************************************************************",
"****************************************************************",
"****************************************************************",
"****************************************************************",
"****************************************************************",
"****************************************************************",
"****************************************************************",
"****************************************************************",
"****************************************************************",
"****************************************************************",
"****************************************************************",
"****************************************************************",
"****************************************************************",
"****************************** *****    ************************",
"***************************** & *   .XXX  **********************",
"***************************** &% .XXXXXXXX  ********************",
"***************************** & .XXXXXXXXXX.  ******************",
"*****************************  ..XXXXXXXXXXXX. *****************",
"***************************** ...XXXXXXXXXXXXX. ****************",
"**************************** ....XXXXXXXXXXXXXX. ***************",
"*************************** ......XXXXXXXXXXXXXX ***************",
"*************************** ........XXXXXXXXXXXX ***************",
"*************************** ........XXXXXXXXXXXX. **************",
"*************************** ........XXXXXXXXXXXXX **************",
"*************************** .........XXXXXXXXXXXX **************",
"**************************** .........XXXXXXXXXXX **************",
"**************************** ..........XXXXXXXXXX **************",
"***************************** ..........XXXXXXXXX **************",
"****************************  ............XXXXXXX **************",
"*************************** OO ...........XXXX.XX **************",
"************************** oOO ............XXX... **************",
"************************** ooO ............XX.... **************",
"************************** ooo .............X... ***************",
"************************** oooo ................ ***************",
"*************************** oooo ............... ***************",
"****************************  ooo ............. ****************",
"**************************** oooOO ............ ****************",
"**************************** oooOOO ......... ******************",
"**************************** ooooOOO   ..... &&&****************",
"*********************&&&&&&&& ooooOOOOo  .  &&&&&&**************",
"****************&&&&&&&&&&&&& ooooooOOoOO O &&&&&&&*************",
"**************&&&&&&&&&&&&&&&& oooooOOOoOOo &&&&&&&*************",
"**********&&&&&&&&&********&&& ooooooOOoOO &&&&&&&&*************",
"*******&&&&&&******************     oOOoOO &&&&&&***************",
"****&&&&&********************* $$$$$  OoOo *********************",
"***&&&&**********************       $$    **********************",
"***&&&&&******************** Oo ####  $$$$ *********************",
"****&&&&&&&**************** OOo ####++     *********************",
"*******&&&&&&&&&********** OOoo ###&&&&## O &&******************",
"***************&&&&&&&&&&&&&&& @ #####+## O ********************",
"**************************     @ #####++## O *******************",
"*******************************   #####+## o *******************",
"*********************************     ####   *******************",
"**************************************       *******************",
"****************************************************************",
"****************************************************************",
"****************************************************************",
"****************************************************************"
};
