/* XPM */
static char *result[] = {
/* columns rows colors chars-per-pixel */
"64 64 19 1 ",
"  c #2F2F2E",
". c #443122",
"X c #7E3030",
"o c #6F4827",
"O c #50565D",
"+ c #983636",
"@ c #804020",
"# c #A06040",
"$ c #C0942D",
"% c #DAA935",
"& c #255190",
"* c #285DAA",
"= c #2D6AC5",
"- c #7E8590",
"; c #9299A4",
": c gray69",
"> c #D4D4D7",
", c white",
"< c None",
/* pixels */
"<<<<<<<<<<<<<<<<<<<<<<<<<<<<<<<<<<<<<<<<<<<<<<<<<<<<<<<<<<<<<<<<",
"<<<<<<<<<<<<<<<<<<<<<<<<<<<<<<<<<<<<<<<<<<<<<<<<<<<<<<<<<<<<<<<<",
"<<<<<<<<<<<<<<<<<<<<<<<<<<<<<<<<<<<<<<<<<<<<<<<<<<<<<<<<<<<<<<<<",
"<<<<<<<<<<<<<<<<<<<<<<<<<<<<<<<<<<<<<<<<<<<<<<<<<<<<<<<<<<<<<<<<",
"<<<<<<<<<<<<<<<<<<<<<<<<<<<<<<<<<<<<<<<<<<<<<<<<<<<<<<<<<<<<<<<<",
"<<<<<<<<<<<<<<<<<<<<<<<<<<<<<<<<<<<<<<<<<<<<<<<<<<<<<<<<<<<<<<<<",
"<<<<<<<<<<<<<<<<<<<<<<<<<<<<<<<<<<<<<<<<<<<<<<<<<<<<<<<<<<<<<<<<",
"<<<<<<<<<<<<<<<<<<<<<<<<<<<<<<<<<<<<<<<<<<<<<<<<<<<<<<<<<<<<<<<<",
"<<<<<<<<<<<<<<<<<<<<<<<<<<<<<<<<<<<<<<<<<<<<<<<<<<<<<<<<<<<<<<<<",
"<<<<<<<<<<<<<<<<<<<<<<<<<<<<<<<<<<<<<<<<<<<<<<<<<<<<<<<<<<<<<<<<",
"<<<<<<<<<<<<<<<<<<<<<<<<<<<<<<<<<<<<<<<<<<<<<<<<<<<<<<<<<<<<<<<<",
"<<<<<<<<<<<<<<<<<<<<<<<<<<<<<<<<<<<<<<<<<<<<<<<<<<<<<<<<<<<<<<<<",
"<<<<<<<<<<<<<<<<<<<<<<<<<<<<<<<<<<<<<<<<<<<<<<<<<<<<<<<<<<<<<<<<",
"<<<<<<<<<<<<<<<<<<<<<<<<<<<<<<<<<<<<<<<<<<<<<<<<<<<<<<<<<<<<<<<<",
"<<<<<<<<<<<<<<<<<<<<<<<<<<<<<<<<<<<<<<<<<<<<<<<<<<<<<<<<<<<<<<<<",
"<<<<<<<<<<<<<<<<<<<<<<<<<<<<<<<<<<<<<<<<<<<<<<<<<<<<<<<<<<<<<<<<",
"<<<<<<<<<<<<<<<<<<<<<<<<<<<<<<<<<<<<<<<<<<<<<<<<<<<<<<<<<<<<<<<<",
"<<<<<<<<<<<<<<<<<<<<<<<<<<    <<<<<<<<<<<<<<<<<<<<<<<<<<<<<<<<<<",
"<<<<<<<<<<<<<<<<<<<<<<<   ++++    <<<<<<<<<<<<<<<<<<<<<<<<<<<<<<",
"<<<<<<<<<<<<<<<<<<<<<< +++XXX+++++  <<<<<<<<<<<<<<<<<<<<<<<<<<<<",
"<<<<<<<<<<<<<<<<<<<<< XX+X XX+++++++ << <<<<<<<<<<<<<<<<<<<<<<<<",
"<<<<<<<<<<<<<<<<<<<< XXX+ : XXX++++++  : <<<<<<<<<<<<<<<<<<<<<<<",
"<<<<<<<<<<<<<<<<<<< XXXXX :, X     X+ ,: <<<<<<<<<<<<<<<<<<<<<<<",
"<<<<<<<<<<<<<<<<<< XXXXXX :,  @@@@@   ,: <<<<<<<<<<<<<<<<<<<<<<<",
"<<<<<<<<<<<<<<<<< XXXXXXX :, @######@@ : <<<<<<<<<<<<<<<<<<<<<<<",
"<<<<<<<<<<<<<<<<< XXXXX   :,, ########@ <<<<<<<<<<<<<<<<<<<<<<<<",
"<<<<<<<<<<<<<<<<< XXXX @@@:,,,@###@#### <<<<<<<<<<<<<<<<<<<<<<<<",
"<<<<<<<<<<<<<<<<  XXXX @@@@:,@#@@##@#@#@ <<<<<<<<<<<<<<<<<<<<<<<",
"<<<<<<<<<<<<<<< @ XXXXX  @@@@@ ::@#@@#@: <<<<<<<<<<<<<<<<<<<<<<<",
"<<<<<<<<<<<<<< @@@ XXXXXX @@@@ :,, @@ :, <<<<<<<<<<<<<<<<<<<<<<<",
"<<<<<<<<<<<<< @##@ XXXXXX @@@@@   @@@@  @ <<<<<<<<<<<<<<<<<<<<<<",
"<<<<<<<<<<<<< ####@ XXXXXX @@@@@@@#######@ <<<<<<<<<<<<<<<<<<<<<",
"<<<<<<<<<<<<< ####@ XXXXXXX @@@@@@@######@ <<<<<<<<<<<<<<<<<<<<<",
"<<<<<<<<<<<<< ####@ XXXXXXXX @@@@@@@     @ <<<<<<<<<<<<<<<<<<<<<",
"<<<<<<<<<<<<< ####@@ XXXXXXXX @@@@@        <<<<<<<<<<<<<<<<<<<<<",
"<<<<<<<<<<<<< ####@@ XXXXXXXXX  @@@ $   % <<<<<<<<<<<<<<<<<<<<<<",
"<<<<<<<<<<<<< @##@@@ XXXXXXXXXXX    $   % <<<<<<<<<<<<<<<<<<<<<<",
"<<<<<<<<<<<<< @@@@@@@ XXXXXXXXX+XXXX $%% <<<<<<<<<<<<<<<<<<<<<<<",
"<<<<<<<<<<<<< @@@###@  XXXXXXXX++++++   <<<<<<<<<<<<<<<<<<<<<<<<",
"<<<<<<<<<<<<<< @@#####    XXX++++++++ <<<<<<<<<<<<<<<<<<<<<<<<<<",
"<<<<<<<<<<<<<< @@##### @@@ X+++++++++ <<<<<<<<<<<<<<<<<<<<<<<<<<",
"<<<<<<<<<<<<<<< @##### @@## ++ +++++  <<<<<<<<<<<<<<<<<<<<<<<<<<",
"<<<<<<<<<<<<<<< @#####@ @###  @  +  @ <<<<<<<<<<<<<<<<<<<<<<<<<<",
"<<<<<<<<<<<<<<<< @####@@ @##@@@@@ @ @@ <<<<<<<<<<<<<<<<<<<<<<<<<",
"<<<<<<<<<<<<<<<< @###@@  ####@@@##@ @@ <<<<<<<<<<<<<<<<<<<<<<<<<",
"<<<<<<<<<<<<<<<<< ####@     @@@@@# @@@ <<<<<<<<<<<<<<<<<<<<<<<<<",
"<<<<<<<<<<<<<<<<< @###@@ oo.    #@     <<<<<<<<<<<<<<<<<<<<<<<<<",
"<<<<<<<<<<<<<<<<<< @@@@@  oooo.   #### <<<<<<<<<<<<<<<<<<<<<<<<<",
"<<<<<<<<<<<<<<<<<<<      ;    ooo @### <<<<<<<<<<<<<<<<<<<<<<<<<",
"<<<<<<<<<<<<<<<<<< ##@ *    ;-    @@@##    <<<<<<<<<<<<<<<<<<<<<",
"<<<<<<<<<<<<<<<<< ###@@ ****    == @@@@ oo.  <<<<<<<<<<<<<<<<<<<",
"<<<<<<<<<<<<<<<< ###@@@ ****===== #       ooo   <<<<<<<<<<<<<<<<",
"<<<<<<<<<<<<<<< ###@@   ****====* ## <<<<<  OOOO   <<<<<<<<<<<<<",
"<<<<<<<<<<<<<<< ##@@ && *****==** ### <<< ;;;;;;OOO     <<<<<<<<",
"<<<<<<<<<<<<<<< ##@@ && ****=*** ###@ << >>>>>>>;;;OOOOo  <<<<<<",
"<<<<<<<<<<<<<<< @@@@   ********* @@@@   >>>>>>>>>>;;;   .o <<<<<",
"<<<<<<<<<<<<<<<     <<<              >>>>>>>>>>>>>>>> <<   <<<<<",
"<<<<<<<<<<<<<<<     <<<<<<<<<<<<<     >>>>>>>>>>>>>  <<<<<<<<<<<",
"<<<<<<<<<<<<<<<<<<<<<<<<<<<<<<<<<<<<< ,>>>>>>>>>>>> <<<<<<<<<<<<",
"<<<<<<<<<<<<<<<<<<<<<<<<<<<<<<<<<<<<<< ,,>>>>>>>>>>> <<<<<<<<<<<",
"<<<<<<<<<<<<<<<<<<<<<<<<<<<<<<<<<<<<<<<  ,,>>>>>>,,, <<<<<<<<<<<",
"<<<<<<<<<<<<<<<<<<<<<<<<<<<<<<<<<<<<<<<<<  ,,,,,,    <<<<<<<<<<<",
"<<<<<<<<<<<<<<<<<<<<<<<<<<<<<<<<<<<<<<<<<<<      <<<<<<<<<<<<<<<",
"<<<<<<<<<<<<<<<<<<<<<<<<<<<<<<<<<<<<<<<<<<<<<<<<<<<<<<<<<<<<<<<<"
};
