/* XPM */
static char *ap2rb_rol59[] = {
/* columns rows colors chars-per-pixel */
"64 64 196 2 ",
"   c None",
".  c #080807",
"X  c #060A15",
"o  c #0D1619",
"O  c #191817",
"+  c #0A0E21",
"@  c #151A2C",
"#  c #171C32",
"$  c #181E36",
"%  c #161B3B",
"&  c #181D3E",
"*  c #132224",
"=  c #162529",
"-  c #1A2039",
";  c #1A2937",
":  c #1F393A",
">  c #1D3433",
",  c #2A2727",
"<  c #2B393A",
"1  c #111D46",
"2  c #181D40",
"3  c #191E4C",
"4  c #131F4B",
"5  c #1B1E5A",
"6  c #1B2243",
"7  c #1C244B",
"8  c #1F2846",
"9  c #1D2454",
"0  c #1C225B",
"q  c #1F2950",
"w  c #29384A",
"e  c #222D52",
"r  c #212B5C",
"t  c #253156",
"y  c #253359",
"u  c #29365E",
"i  c #273C55",
"p  c #1F2560",
"a  c #202661",
"s  c #222B65",
"d  c #242E69",
"f  c #243266",
"g  c #26316D",
"h  c #29356E",
"j  c #2C3C69",
"k  c #242E70",
"l  c #2A3674",
"z  c #2B3D74",
"x  c #2E3C7B",
"c  c #303E7E",
"v  c #7D345C",
"b  c #5F3A6F",
"n  c #4D3E7D",
"m  c #513A77",
"M  c #7A3460",
"N  c #753A66",
"B  c #68386B",
"V  c #284749",
"C  c #2F575A",
"Z  c #30585A",
"A  c #35446E",
"S  c #355A65",
"D  c #2E467C",
"F  c #35477D",
"G  c #34497E",
"H  c #314374",
"J  c #38656A",
"K  c #3E6A75",
"L  c #544E4D",
"P  c #5A5550",
"I  c #5E4278",
"U  c #794C6F",
"Y  c #6B4B7D",
"T  c #654778",
"R  c #755279",
"E  c #446C6F",
"W  c #417376",
"Q  c #43757A",
"!  c #677071",
"~  c #767676",
"^  c #962E4B",
"/  c #8B395B",
"(  c #8D3757",
")  c #903150",
"_  c #853F63",
"`  c #2F3B82",
"'  c #2E3D89",
"]  c #323C86",
"[  c #313E89",
"{  c #3D3D83",
"}  c #423F81",
"|  c #334483",
" . c #334B81",
".. c #384C84",
"X. c #33428B",
"o. c #374B8B",
"O. c #394D8D",
"+. c #3A5C81",
"@. c #385B8C",
"#. c #365683",
"$. c #374790",
"%. c #374A92",
"&. c #394E91",
"*. c #3C5394",
"=. c #3D5B96",
"-. c #3F5599",
";. c #3E5D9B",
":. c #3F649A",
">. c #3C6695",
",. c #454486",
"<. c #57568D",
"1. c #455595",
"2. c #485593",
"3. c #425B9D",
"4. c #435797",
"5. c #644E83",
"6. c #41668C",
"7. c #477D82",
"8. c #42629A",
"9. c #446C9C",
"0. c #426792",
"q. c #54659C",
"w. c #42739E",
"e. c #4A759F",
"r. c #5F7C96",
"t. c #62668E",
"y. c #727F8A",
"u. c #606994",
"i. c #435DA1",
"p. c #4564A3",
"a. c #466CA6",
"s. c #476DA9",
"d. c #486EA9",
"f. c #4670A6",
"g. c #4A75A1",
"h. c #4679A5",
"j. c #4B7EA3",
"k. c #4772A9",
"l. c #4875AA",
"z. c #4A7BAD",
"x. c #477DAA",
"c. c #507CAA",
"v. c #4A7FB0",
"b. c #4E8498",
"n. c #518B9B",
"m. c #549499",
"M. c #549599",
"N. c #4A858A",
"B. c #698E92",
"V. c #4A81AE",
"C. c #4F88A2",
"Z. c #5184A6",
"A. c #548FA2",
"S. c #518DAC",
"D. c #5590A3",
"F. c #5A9DA3",
"G. c #5997AD",
"H. c #5A9BAF",
"J. c #5490AD",
"K. c #4C85B1",
"L. c #4D8BB3",
"P. c #508FB4",
"I. c #5293B5",
"U. c #579BB6",
"Y. c #5A9EB4",
"T. c #589BB8",
"R. c #5497B8",
"E. c #5EA5AB",
"W. c #5CA1A7",
"Q. c #5DA2B5",
"!. c #5CA4BA",
"~. c #60A9AE",
"^. c #66A6AC",
"/. c #62ACB6",
"(. c #61ACB9",
"). c #65A2B3",
"_. c #64B0B7",
"`. c #66B3B9",
"'. c #68B6BB",
"]. c #69B7BD",
"[. c #6AB9BE",
"{. c #73B3B9",
"}. c #6ABBC0",
"|. c #6BBCC1",
" X c #67B6C0",
".X c #78BBC1",
"XX c #9C9896",
"oX c #96BBBF",
"OX c #AFB9BA",
"+X c #89B5C1",
"@X c #95CDD2",
"#X c #85C6CA",
"$X c #B3C9CE",
"%X c #A7D6DA",
"&X c #C3C7C7",
"*X c #CCE5E8",
/* pixels */
"                                                                                                                                ",
"                                                                                                                                ",
"                                                                                                                                ",
"                                                                                                                                ",
"                                                                                                                                ",
"                                                                                                                                ",
"                                                                                                                                ",
"                                                                                                                                ",
"                                                                                                                                ",
"                                                                                                                                ",
"                                                                                                                                ",
"                                                                                                                                ",
"                                                                                                                                ",
"                                                                                                                                ",
"                                                                                                                                ",
"                                                                                                                                ",
"                                                                                                                                ",
"                                                                                                                                ",
"                                                                                                                                ",
"                                                                                                                                ",
"                                                                                                                                ",
"                                                                                                                                ",
"                                                                                                                                ",
"                                                                                                                                ",
"                                                                                                                                ",
"                                                                                                                                ",
"                                                                                                                                ",
"                                                                                                                                ",
"                                                                                                                                ",
"                                                                                                                                ",
"                                                                                                                                ",
"                                                                                                                                ",
"                                                                                                                                ",
"                                                                                                                                ",
"                                                                                                                                ",
"                                                                                                                                ",
"                                                                                                                                ",
"                                                                                                                                ",
"                                  0 0 0 0 0 0 0 5 5 5 5 5 5 5 5 5 5 5 5 5 5 5 5 5 5 5 5 5 5 5 5 5 5 5 5 5 0                     ",
"                                a s s s s s s s s f f f f f f f f f f f f f f f f f f f f f f f f f f s s s s                   ",
"                              d l l x D G G  . . .#.#.+.+.+.+.+.+.+.+.+.+.+.+.+.+.+.+.+.+.+.+.+.+.+.#.#.G D z a                 ",
"                          5 p g c O.-.:.9.w.w.w.w.j.Z.A.D.D.D.D.D.A.A.A.A.A.A.D.A.A.A.A.A.A.A.D.D.A.Z.Z.w.>.D f 0               ",
"                          a d x o.3.s.z.K.L.L.L.R.T././._._._._./._._._._._._._._._._._._._._._._./.!.T.I.h.@.z s p             ",
"                      a d l x o.;.s.z.K.L.I.R.T.!.(._.`.'.'.'.`.`.`.`.[.}.}.[.'.'.`.'.'.'.'.'.[.}.}. X(.!.S.w.@.G z f           ",
"                    0 s l | *.8.f.z.K.L.L.I.T.!./._._._._._._._._._._.`.'.'.`._._._._._._._._.`.`.`._._.(.Q.J.j.>. .h 0         ",
"                    0 s l o.3.s.z.K.L.L.L.I.Q./._._._._._._._.]..X.X{.^.F.F.E./._._._._._._./.~.F.F.F.E./.(.!.I.h.@.z d p       ",
"                    0 a l o.3.d.z.L.L.L.L.I.Q./._.`.`.`.`.`.].#X%X%XoXB.E K N.E._.'._._.`.`./.m.Q J W M.~.`.!.R.V.:.o.x l d p   ",
"                    0 s l o.3.s.z.K.L.L.L.I.Q./._._._._._._.].@X*X*XOX! < : J m._.'._._.'.'.E.7.V > V Q W./.!.I.V.f.;.O.x d p 0 ",
"                  a s g x O.3.s.z.K.L.L.L.I.Q./././.Q.H.H.H.).+X$X&XXXL O * C m._.[.`._.'.'.E.W > o = S n.T.T.P.K.l.p.-.| g p 0 ",
"                s l x | o.*.3.s.z.L.L.L.L.I.Q././.G.Z.e.e.g.e.r.y.~ P , . o Z M.`.|.'.`.[.[.E.W > . o i 6.j.K.L.K.z.a.-.| g p 0 ",
"              0 s x o.*.-.4.3.a.z.K.L.L.L.I.Q./.Q.Z.8.*.&.*.O.A w , O . . = S M._.'._._.'.'.E.W : X + q  .3.l.V.K.z.p.-.| g p 0 ",
"            5 0 d x &.3.i.3.i.p.l.z.K.K.L.I.T.!.Y.Z.9.*.%.X.` s % + X X o ; S b.H.Q.Y.H.Y.Y.D.K w @ % r | ;.s.z.z.l.p.-.| g p 0 ",
"            5 0 d x *.i.i.i.3.p.a.f.z.V.L.I.R.U.U.J.Z.e.8.&.` k 0 4 1 1 7 f G 0.e.g.g.e.g.g.9.#.j e y G =.a.s.s.s.a.p.-.| g p 0 ",
"            5 0 s x O.3.i.3.3.3.3.p.s.z.K.L.L.L.I.U.Q.G.j.=.X.` x x l z x c | o.&.*.&.&.&.&.O.| c x o.:.h.z.f.p.p.i.3.-.| g p 0 ",
"              0 s z | &.-.3.3.3.3.i.p.f.z.V.K.L.I.T.!.Q.S.9.*.O.,.n n n n n { [ [ [ [ [ [ [ X.X.$.*.:.f.z.z.s.p.3.-.*.o.x g p 0 ",
"                s g l x o.-.i.i.i.i.p.p.s.l.z.K.L.R.T.U.L.x.9.<.T N M M N B m { [ ' [ [ ] ] X.&.;.a.f.f.f.s.p.i.-.o.| x l d     ",
"                  0 a d x O.4.3.3.3.3.3.p.a.l.K.L.L.L.L.L.K.j.t.U ( ^ ^ ) v b } X.X.X.X.[ X.X.=.a.x.z.f.p.i.i.3.*.| g s 0       ",
"                    3 9 f z  ... . .O.*.3.p.d.z.z.v.z.v.K.K.c.u.R _ ( ( / N I ,.$.$.$.$.$.$.&.;.s.z.z.s.i.3.-.&.| h r 9 3       ",
"                    & 6 7 e y y y u j ..4.p.a.s.d.d.s.s.f.k.d.q.<.5.Y Y Y 5.<.1.-.-.-.-.-.-.-.i.a.s.s.p.i.-.o.c h r 7 2 %       ",
"                    $ $ $ - - - $ - t H *.3.3.3.3.3.3.3.3.3.3.4.4.2.2.2.2.1.4.4.-.-.-.-.-.-.-.4.4.3.3.3.4.O.x d 0 7 & $ #       ",
"                    @ @ @ @ @ @ @ # 8 u H G G F F F F F F F F F G  . . . .G G G G G G G G G G G G F G G F z f 9 3 2 $ #         ",
"                        @ @ @ @ @ # - 8 e t t t t t t t t t t t t y y y y t t t t t t t t t t t t t t t t e 7 6 & %             ",
"                          # # # # # # $ - - - - - - - - - - - - - - - - - - - - - - - - - - - - - - - - - $ $ $ $ #             ",
"                          # # # # # # @ @ @ @ @ @ @ @ @ @ @ @ @ @ @ @ @ @ @ @ @ @ @ @ @ @ @ @ @ @ @ @ @ @ @ @ @ @ @             "
};
