/* XPM */
static char *a3g68_4kerc[] = {
/* columns rows colors chars-per-pixel */
"64 64 205 2 ",
"   c None",
".  c #070709",
"X  c #0C1616",
"o  c #12141A",
"O  c #221D1C",
"+  c #0D1520",
"@  c #151A2D",
"#  c #111B26",
"$  c #0D163A",
"%  c #171C32",
"&  c #181E35",
"*  c #181D3D",
"=  c #171C38",
"-  c #132224",
";  c #15262C",
":  c #1A2037",
">  c #1A2038",
",  c #192A36",
"<  c #1E3437",
"1  c #2D3433",
"2  c #191E41",
"3  c #191E4C",
"4  c #111F44",
"5  c #191B57",
"6  c #1A1E59",
"7  c #1C2244",
"8  c #1F284D",
"9  c #1A2347",
"0  c #1C2253",
"q  c #1D235D",
"w  c #212A4B",
"e  c #223A47",
"r  c #202859",
"t  c #242F55",
"y  c #253055",
"u  c #26345A",
"i  c #213A5F",
"p  c #1F2561",
"a  c #1F2861",
"s  c #212B64",
"d  c #232D69",
"f  c #243063",
"g  c #293563",
"h  c #25336C",
"j  c #27386F",
"k  c #293869",
"l  c #273370",
"z  c #273970",
"x  c #2B3B74",
"c  c #2E3C7A",
"v  c #293673",
"b  c #7B345D",
"n  c #5E396F",
"m  c #463D7E",
"M  c #4D3778",
"N  c #6D2E61",
"B  c #6D3366",
"V  c #67356B",
"C  c #703567",
"Z  c #2A4244",
"A  c #2B435F",
"S  c #2F585A",
"D  c #32595B",
"F  c #32586A",
"G  c #2B4175",
"H  c #2D457A",
"J  c #2E487C",
"K  c #314175",
"L  c #35467C",
"P  c #344A7E",
"I  c #345477",
"U  c #37567E",
"Y  c #2F5469",
"T  c #39666C",
"R  c #3C6774",
"E  c #595554",
"W  c #67605D",
"Q  c #624272",
"!  c #665079",
"~  c #476161",
"^  c #417275",
"/  c #45757B",
"(  c #697677",
")  c #8F2E4E",
"_  c #902D4D",
"`  c #92314F",
"'  c #8D3252",
"]  c #903150",
"[  c #94495D",
"{  c #964659",
"}  c #814D69",
"|  c #886575",
" . c #2F3786",
".. c #2F3987",
"X. c #2D3988",
"o. c #323F89",
"O. c #3B3B83",
"+. c #423E81",
"@. c #2F418C",
"#. c #324482",
"$. c #344B82",
"%. c #34448B",
"&. c #394D8E",
"*. c #394A86",
"=. c #335285",
"-. c #395A82",
";. c #3A518D",
":. c #36598A",
">. c #385E8E",
",. c #365886",
"<. c #3A4E90",
"1. c #3C5493",
"2. c #3C5A93",
"3. c #3F5798",
"4. c #3B6493",
"5. c #3C6893",
"6. c #3E6A99",
"7. c #424182",
"8. c #425C9D",
"9. c #405A99",
"0. c #515889",
"q. c #406A8E",
"w. c #43659C",
"e. c #426D9C",
"r. c #436795",
"t. c #477798",
"y. c #54799D",
"u. c #467686",
"i. c #74768A",
"p. c #677C94",
"a. c #435DA1",
"s. c #4463A3",
"d. c #466CA6",
"f. c #476EAA",
"g. c #486FAA",
"h. c #4475A1",
"j. c #467AA5",
"k. c #4D7DA3",
"l. c #4772A8",
"z. c #4873AA",
"x. c #477DA8",
"c. c #4A7DAE",
"v. c #4A75A0",
"b. c #4A7FB0",
"n. c #847682",
"m. c #827A85",
"M. c #4C8587",
"N. c #4E8696",
"B. c #54959A",
"V. c #548A93",
"C. c #7A8993",
"Z. c #6A9597",
"A. c #4E80A3",
"S. c #4A81AE",
"D. c #4E89AC",
"F. c #4E8BA1",
"G. c #5184A5",
"H. c #538BA4",
"J. c #538AAA",
"K. c #5593A5",
"L. c #599CA2",
"P. c #5A9BAE",
"I. c #5692AC",
"U. c #4C84B0",
"Y. c #4E8BB3",
"T. c #518EB3",
"R. c #5393B4",
"E. c #569AB6",
"W. c #5A9DB4",
"Q. c #5294B8",
"!. c #569CB8",
"~. c #589EB9",
"^. c #6B99A5",
"/. c #5EA4AB",
"(. c #5DA3B5",
"). c #5FA8B7",
"_. c #56A0B9",
"`. c #5BA2BA",
"'. c #5FABB9",
"]. c #6CA2AB",
"[. c #63A9AF",
"{. c #63A4AE",
"}. c #60A5B5",
"|. c #62ACB6",
" X c #61ACB9",
".X c #69ADB3",
"XX c #63B1B6",
"oX c #65B2B9",
"OX c #6AB6BC",
"+X c #69B9BF",
"@X c #69B0B5",
"#X c #71B7BE",
"$X c #79ADAE",
"%X c #6ABBC1",
"&X c #878A88",
"*X c #88A1A0",
"=X c #90BCBE",
"-X c #A3A1A0",
";X c #ADBCBD",
":X c #94CCD1",
">X c #8FC8CD",
",X c #B0D5D8",
"<X c #BFE4E7",
"1X c #CCD2D3",
"2X c #D0E6E8",
/* pixels */
"                                                                                                                                ",
"                                                                                                                                ",
"                                                                                                                                ",
"                                                                                                                                ",
"                                                                                                                                ",
"                                                                                                                                ",
"                                                                                                                                ",
"                                                                                                                                ",
"                                                                                                                                ",
"                                                                                                                                ",
"                                                                                                                                ",
"                                                                                                                                ",
"                                                                                                                                ",
"                                                                                                                                ",
"                                                                                                                                ",
"                                                                                                                                ",
"                                                                                                                                ",
"                                                                                                                                ",
"                                                                                                                                ",
"                                                                                                                                ",
"                                                                                                                                ",
"                                                                                                                                ",
"                                                                                                                                ",
"                                                                                                                                ",
"                                                                                                                                ",
"                                                                                                                                ",
"                                                                                                                                ",
"                                                                                                                                ",
"                                                                                                                                ",
"                                                                                                                                ",
"                                                                                                                                ",
"                                                                                                                                ",
"                                                    6 6 6 6 6 6 6 6 6 6 6 6 6 6 6 6 6 6                                         ",
"                                                    s s s s s s s s s s s s s s s s s s s                                       ",
"                                                  z G H H H H H H H H H H H H H H H H H x h                                     ",
"                                        6 6 5 6 s J >.6.6.6.6.6.6.6.6.6.6.6.6.6.6.6.6.4.=.j q 5 5 6 6                           ",
"                                      s s s a s z :.h.D.Y.Y.Y.Y.Y.Y.Y.Y.Y.Y.Y.Y.Y.Y.Y.S.5.J h s s s s                           ",
"                                    h G H J H J =.e.D.E.`.~.~.~.E.E.~.~.`.`.~.~.~.~.~.R.A.q.-.U -.-.U G                         ",
"                                  q z =.5.e.6.6.h.D.W.'. X X'.).(.(.'.'. X X X X X X X(.P.K.H.H.K.H.t.U f 6                     ",
"                                s h H 4.x.Y.Y.Y.R.W.|.oXoXoXoXOX#X#X@X[./././.|.oXoXoXoXoX|.|.|./.L.t.U z s p                   ",
"                              h G $.>.h.U.Q.Q.~.`. XoXoXoXoXOX>X:X,X=XZ./ / V./.oXoXoXoXOXOXoXL.M.^ R I P H z s                 ",
"                          5 a x :.e.j.S.Y.R.~.(. XoXoXoXXXXXOX:X<X2X;X( Z Z T L.oXOXoXoXOXOX[.M.S < e Y 5.4.$.h q               ",
"                          s j $.6.S.Y.Y.Y.R.W.|.|.|.}.(.(.|.OX>X,X1X-XE O - S B.oX+XoXoXOXOX/.^ < X ; Y t.j.2.G s s             ",
"                      s j H =.4.j.Y.Y.Y.Y.R.`.|.|.P.J.G.I.(.@X$X*X&XW 1 . o S B.oX%XOXoX+X+X/.^ < . - F F.R.j.>.P x h           ",
"                    q s H 4.h.x.S.Y.Y.Y.Y.R.`.|.(.G.e.w.k.W.{.V.~ 1 O . . - D B.oX%XoXoX+X+X/.^ < X ; T K.(.R.x.6.=.j q         ",
"                  p s j =.e.U.Y.Y.Y.Y.Y.Y.R.(.|.W.k.1.&.w.J.K./ e + . . X , F N.(.}.(.(.}.}.K.R e # < R L. X`.R.j.:.j q 6       ",
"                s h x #.2.j.Y.T.Y.Y.Y.Y.Y.R.(.|.P.k.1.%.1.e.e.-.i 4 $ $ 9 u I r.k.k.k.k.k.k.t.U u 8 A u./.oX'.Q.x.:.j q 6       ",
"              q s x %.1.d.c.Y.Y.Y.Y.Y.Y.Y.R.(.|.W.k.2.%.%.<.1.*.c v l v v c #.&.1.1.1.1.1.1.1.#.c c ,.N.(. X(.R.j.:.j q 6       ",
"            6 q s c <.s.l.c.Y.Y.Y.Y.Y.Y.Y.R.`.|.(.J.e.1.*.7.m m m m m m m +.O.o.o.o.o.o.o.o.%.%.&.1.e.J.(.(.E.Y.h.=.j q 6       ",
"            6 q d c <.s.l.U.Y.Y.Y.Y.Y.Y.Y.R.`.|.|.W.J.y.0.Q B N B B B C B V M O...X..... . .o.1.w.k.J.R.E.R.T.c.w.$.h q 6       ",
"            6 q s c <.s.l.c.Y.Y.Y.Y.Y.Y.Y.R.W.|.|. X(.^.i.} ' _ ) ' ] ` ' b n +.%.%.%.%.o.o.%.w.G.P.(.E.R.U.c.d.1.#.d q 6       ",
"            6 q s c <.8.f.z.S.U.Y.Y.Y.Y.Y.R.E.(. XoXoX].C.| [ { { [ { { [ } ! 0.2.2.2.2.1.1.9.v.I.(.(.R.S.z.s.1.*.c d q         ",
"            6 q s c <.8.s.d.l.c.U.Y.Y.Y.Y.Y.R.E.`.'.oX.X^.C.m.n.n.n.n.n.n.i.p.y.A.A.A.A.k.k.G.J.E.W.R.U.z.w.;.#.x h s           ",
"            6 q s c <.8.a.a.s.f.c.U.Y.Y.Y.Y.Y.Y.R.`.|.|..X].].].].].].].].].{.}.(.(.(.(.(.(.(.W.R.T.U.z.s.1.L h s p             ",
"            6 q d c <.8.a.a.a.s.l.c.S.S.S.S.U.Y.T.E.(.). X'.'.'.'.'.'.'.'.'.'. X X X X X X X).W.T.S.z.d.8.<.c s q 6             ",
"            6 q d c 1.a.a.a.a.s.d.f.f.f.f.z.c.U.Y.R.E.~.~.~._._._._._._._._._.~.W.W.W.W.`.`.W.T.c.l.d.s.a.<.c s q 6             ",
"            6 q s c &.9.8.8.8.8.8.a.a.a.s.d.z.U.Y.Y.Y.Y.Y.Y.Y.Y.Y.Y.Y.Y.Y.Y.Y.Y.Y.Y.Y.Y.T.T.Y.c.f.s.a.a.8.&.c s q 6             ",
"            3 0 r g K $.*.$.*.;.1.8.a.a.a.s.f.c.b.U.c.c.c.c.c.c.c.c.c.c.c.c.c.c.c.c.c.c.b.b.c.l.s.a.9.1.&.#.h r 0 3             ",
"            2 2 7 8 t u u u g K &.8.a.a.a.s.s.f.g.g.f.f.f.f.f.f.f.f.f.f.f.f.f.f.f.f.f.f.f.f.f.d.s.a.1.%.c h r 9 2 *             ",
"            & & & & > > : : 7 u L 1.8.8.9.9.9.8.8.8.8.8.8.8.8.8.8.8.8.8.8.8.8.8.8.8.8.8.8.8.8.8.8.9.&.c d 0 7 * & %             ",
"              @ @ @ @ @ @ @ & w g K P P P P L L L L L L L L L L L L L L L L L L L L L L L L L P P L x s 0 3 * & @               ",
"                  @ @ @ @ @ % > w y y y y y y y y y y y y y y y y y y y y y y y y y y y y y y y y y w 9 2 * =                   ",
"                  % % % % % % & & > > > > > > > > > > > > > > > > > > > > > > > > > > > > > > > > > & & & & &                   ",
"                    % % % % % @ @ @ @ @ @ @ @ @ @ @ @ @ @ @ @ @ @ @ @ @ @ @ @ @ @ @ @ @ @ @ @ @ @ @ @ @ @ @                     "
};
