/* XPM */
static char *amt8o_6zj0l[] = {
/* columns rows colors chars-per-pixel */
"64 64 197 2 ",
"   c None",
".  c #000101",
"X  c #050909",
"o  c #090707",
"O  c #0C1415",
"+  c #0E1919",
"@  c #141313",
"#  c #111D1F",
"$  c #261F1E",
"%  c #171C31",
"&  c #132223",
"*  c #15292A",
"=  c #192C2E",
"-  c #1A2E30",
";  c #1C3133",
":  c #23393B",
">  c #262929",
",  c #191A56",
"<  c #1B1F59",
"1  c #1D235D",
"2  c #1F2660",
"3  c #222C65",
"4  c #252E6B",
"5  c #202761",
"6  c #26326C",
"7  c #28336F",
"8  c #27386C",
"9  c #2A3673",
"0  c #293D73",
"q  c #2E3C7B",
"w  c #273870",
"e  c #303F7E",
"r  c #3F397E",
"t  c #7A2F59",
"y  c #7C325A",
"u  c #57346F",
"i  c #533673",
"p  c #5B3F75",
"a  c #4B3777",
"s  c #7A3961",
"d  c #693264",
"f  c #264344",
"g  c #384D4F",
"h  c #2C4E51",
"j  c #315559",
"k  c #32585C",
"l  c #365F60",
"z  c #2D4375",
"x  c #2C4479",
"c  c #2F497C",
"v  c #304B7F",
"b  c #36537D",
"n  c #345177",
"m  c #396367",
"M  c #38636A",
"N  c #3C6A6E",
"B  c #366468",
"V  c #3D6877",
"C  c #3E7174",
"Z  c #464140",
"A  c #534C4B",
"S  c #50417B",
"D  c #73486D",
"F  c #725277",
"G  c #416A6C",
"H  c #417275",
"J  c #47797D",
"K  c #596363",
"L  c #767676",
"P  c #98314C",
"I  c #812B53",
"U  c #913753",
"Y  c #894C67",
"T  c #834F6C",
"R  c #85546D",
"E  c #2E3B88",
"W  c #303C88",
"Q  c #373B84",
"!  c #324281",
"~  c #324C82",
"^  c #34448B",
"/  c #3B478A",
"(  c #364A8C",
")  c #384D8E",
"_  c #3F4486",
"`  c #335285",
"'  c #365589",
"]  c #36598B",
"[  c #385D8E",
"{  c #385880",
"}  c #3C5593",
"|  c #3D5B94",
" . c #3E5698",
".. c #3D5A99",
"X. c #3D638C",
"o. c #3D6384",
"O. c #3C6595",
"+. c #3F629A",
"@. c #3D6896",
"#. c #4A5088",
"$. c #435D98",
"%. c #5A5786",
"&. c #426B8C",
"*. c #467B81",
"=. c #436396",
"-. c #42649C",
";. c #44699B",
":. c #497A97",
">. c #42719E",
",. c #49739F",
"<. c #4A7E99",
"1. c #457294",
"2. c #5E7299",
"3. c #7B6880",
"4. c #767C8D",
"5. c #686F91",
"6. c #657496",
"7. c #666888",
"8. c #456AA6",
"9. c #476CA8",
"0. c #4473A3",
"q. c #4A75A1",
"w. c #4679A6",
"e. c #4C7CA4",
"r. c #4676A8",
"t. c #477DA9",
"y. c #4A7CAD",
"u. c #4872AA",
"i. c #5374A0",
"p. c #477DB0",
"a. c #4A7EB0",
"s. c #4A8285",
"d. c #4D888B",
"f. c #508C8F",
"g. c #4F859E",
"h. c #4F8C91",
"j. c #508D92",
"k. c #518C9B",
"l. c #549499",
"z. c #57999F",
"x. c #6F8699",
"c. c #7D8F91",
"v. c #618789",
"b. c #4E82A2",
"n. c #4B83AD",
"m. c #5082A6",
"M. c #528AA2",
"N. c #538CAB",
"B. c #5886A6",
"V. c #599DA3",
"C. c #5692AC",
"Z. c #5894AD",
"A. c #5B9CAC",
"S. c #4C85B1",
"D. c #4E8CB3",
"F. c #4F8FB8",
"G. c #508EB3",
"H. c #5393B5",
"J. c #569AB6",
"K. c #5A9DB4",
"L. c #559AB8",
"P. c #599EB8",
"I. c #5395B8",
"U. c #639EB0",
"Y. c #669CAA",
"T. c #5BA1A6",
"R. c #5DA3AA",
"E. c #5DA3B5",
"W. c #5FABB7",
"Q. c #5BA3BA",
"!. c #57A0B9",
"~. c #60A8AE",
"^. c #63A3A9",
"/. c #74A0A5",
"(. c #60A6B2",
"). c #62ADB6",
"_. c #62ACB8",
"`. c #68ACB2",
"'. c #66B3B9",
"]. c #68B6BD",
"[. c #6AB9BE",
"{. c #62B1B7",
"}. c #72B9BF",
"|. c #71B3B9",
" X c #6CBDC3",
".X c #79BBC1",
"XX c #8F8A89",
"oX c #8FB4B6",
"OX c #A2ACAC",
"+X c #8BC9CD",
"@X c #9FD2D6",
"#X c #98C5C9",
"$X c #A9D7DA",
"%X c #BCD0D2",
"&X c #C0C3C3",
"*X c #D2E2E3",
"=X c #CAE8EA",
/* pixels */
"                                                                                                                                ",
"                                                                                                                                ",
"                                                                                                                                ",
"                                                                                                                                ",
"                                                                                                                                ",
"                                                                                                                                ",
"                                              < 1 1 1 1 < < < < < < < 1 1 1 < < <                                               ",
"                                            3 3 3 3 3 3 3 3 3 3 3 3 3 3 3 3 3 3 3 3                                             ",
"                                          4 z c ~ ~ v c c c c c ~ ~ ~ ~ ~ ~ ~ c c 0 3                                           ",
"                                        1 8 ` @.>.0.>.>.>.>.>.>.>.>.>.>.>.>.0.>.@.~ 8 1                                         ",
"                                      2 3 0 [ w.D.F.D.D.D.D.D.D.D.G.G.G.D.D.H.D.b.X.c 6 3                                       ",
"                                    3 7 q ~ +.y.H.L.P.P.P.L.L.!.Q.Q.Q.Q.Q.Q.Q.P.J.b.1.X.b 8                                     ",
"                                1 2 4 q ) ..9.n.H.L.E._._.W.W._._._._._._._._._._.E.A.M.&.z 2 ,                                 ",
"                                < 2 7 ! ..9.y.D.H.E._.'.}..X.X|.^.V.V.R.).'.'.'.).R.V.k.&.n 8 4                                 ",
"                                , 1 8 ( 8.y.G.H.E.E.).[.+X$X$XoXv.G C h.~.'.[.'.R.f.H m M V o.{ z 3                             ",
"                                < 2 0 ] w.G.J.E._.W.).}.@X=X*XOXK : f C T.]. X'.z.N : - h *.k.:.b 3 <                           ",
"                                3 w c @.n.H.Q._.'.{.{.|.#X%X&XXXZ @ * B V.]. X'.l.k & O f s.R.g.b 3 <                           ",
"                            3 0 v ] @.0.n.H.E._.'.'.'.`./.c.L A $ X * B V.]. X'.l.j # O f s.R.M.b 3 <                           ",
"                          < 3 z [ 0.n.n.D.H.E._.'.].'.R.J g > @ o X - N V.]. X'.l.k & O f s.R.g.b 3 <                           ",
"                          < 3 x @.n.H.H.H.J.E.).'.[.'.V.N = . . . X - N V.]. X'.l.k & O f s.R.g.b 3 <                           ",
"                          < 3 x @.n.I.L.P.E._.).'.[.].V.B & . . . . = N V.]. X'.l.j # O f s.A.g.b 3 <                           ",
"                          < 3 x O.n.H.Q._._.'.'.'.].'.V.N ; X . . X ; N V.]. X'.l.k & + f s.R.g.b 3 <                           ",
"                          < 3 x O.n.J.Q._.'.'.'.'.].'.R.*.h = & & - h J R.]. X'.V.N f : l j.R.g.b 3 <                           ",
"                          < 3 x O.n.J.Q._.'.'.'.'.[.'.).l.*.N m m N *.l.~.'.].'.R.j.J H d.T.E.g.b 3 <                           ",
"                          < 3 x O.n.H.Q.).'.{.).)._.).).(.R.V.V.V.T.R.(.).'.'.'.).~.R.T.~.).E.<.n 3 <                           ",
"                          < 3 x @.n.H.P.E.E.K.Z.C.C.Z.A.E._.].[.[.].].'.'.'.'.'.'.'.].'._.E.N.&.z 3 <                           ",
"                          < 3 x @.n.H.L.H.N.e.;.;.-.;.,.N.(.]. X X[.[.].'.'.'.'.'.[.[.'.K.m.=.~ 9 3 1                           ",
"                          < 3 x @.n.F.H.D.n.8.| ) ( ( } ,.C._.'.'.).).).).).).).).'.).E.N.;.) q 4 2 1                           ",
"                          < 3 x @.n.F.F.D.n.0.-.| ( ^ ( | e.N.Z.C.C.C.C.C.C.C.C.C.C.C.N.e.;.| ~ 7 5 1                           ",
"                          < 3 x @.n.F.F.D.D.N.N.e.=.( ^ ( | -.;.;.;.;.;.;.;.;.;.;.-.-.;.q.m.b.&.z 3 <                           ",
"                          < 3 x O.t.D.D.D.H.P.E.A.e.| ( ^ / / / / / / / ( ( ( ( ( ( ( | q.Z.A.<.n 3 <                           ",
"                            3 0 ' @.0.t.S.H.P.E.K.N.q.=.#.S i u u i a r Q W E W ^ ) | ;.m.K.K.<.n 3 <                           ",
"                              6 0 x ' ;.n.H.H.H.H.J.C.B.7.D y I I t d i Q E E W ( =.e.N.K.P.H.1.c 3 <                           ",
"                                1 3 z | t.D.F.D.H.P.E.Y.4.R U P P U s p _ ^ ^ ( } ,.C.E.P.H.t.O.x 3 <                           ",
"                                , 1 w ' 0.S.S.D.G.P.Q.U.x.3.R Y Y T F %.$.......-.e.N.C.m.>.O.` 0 3                             ",
"                                < 1 7 ~ -.u.a.S.F.H.H.J.B.6.6.5.5.6.2.i.r.r.r.r.r.y.y.q.O.~ z w 6                               ",
"                                1 1 7 ! } 8.u.y.S.D.D.S.S.n.n.n.n.n.n.n.S.S.S.S.y.0.-.} ! 9 3 1                                 ",
"                                  1 4 9 ! ) +.0.y.y.y.y.y.p.p.p.p.p.a.y.y.y.a.y.0.+.) ! 9 3 <                                   ",
"                                      4 7 q ( $.8.8.8.8.8.8.8.8.8.8.8.8.8.8.9.8.-.( q 7 3                                       ",
"                                      1 2 7 e )  ... . . . . . . . . . . . .$. .) e 4 2 1                                       ",
"                                        1 3 9 q ! ! ! ! ! ! ! ! ! ! ! ! ! ! ! ! q 9 3 1                                         ",
"                                            4 4 4 4 4 4 4 4 4 4 4 4 4 4 4 4 4 4 4 4                                             ",
"                                              1 1 1 1 1 1 1 1 1 1 1 1 1 1 1 1 1 1                                               ",
"                                                1 1 < < < < < < < < 1 1 < < < <                                                 ",
"                                                                                                                                ",
"                                                                                                                                ",
"                                                                                                                                ",
"                                                                                                                                ",
"                                                                                                                                ",
"                                    % % % % % % % % % % % % % % % % % % % % % % % % % % % %                                     ",
"                                % % % % % % % % % % % % % % % % % % % % % % % % % % % % % % % %                                 ",
"                                % % % % % % % % % % % % % % % % % % % % % % % % % % % % % % % %                                 ",
"                            % % % % % % % % % % % % % % % % % % % % % % % % % % % % % % % % % % % %                             ",
"                          % % % % % % % % % % % % % % % % % % % % % % % % % % % % % % % % % % % % % %                           ",
"                          % % % % % % % % % % % % % % % % % % % % % % % % % % % % % % % % % % % % % %                           ",
"                          % % % % % % % % % % % % % % % % % % % % % % % % % % % % % % % % % % % % % %                           ",
"                          % % % % % % % % % % % % % % % % % % % % % % % % % % % % % % % % % % % % % %                           ",
"                          % % % % % % % % % % % % % % % % % % % % % % % % % % % % % % % % % % % % % %                           ",
"                          % % % % % % % % % % % % % % % % % % % % % % % % % % % % % % % % % % % % % %                           ",
"                          % % % % % % % % % % % % % % % % % % % % % % % % % % % % % % % % % % % % % %                           ",
"                          % % % % % % % % % % % % % % % % % % % % % % % % % % % % % % % % % % % % % %                           ",
"                              % % % % % % % % % % % % % % % % % % % % % % % % % % % % % % % % % %                               ",
"                                % % % % % % % % % % % % % % % % % % % % % % % % % % % % % % % %                                 ",
"                                % % % % % % % % % % % % % % % % % % % % % % % % % % % % % % % %                                 "
};
