/* XPM */
static char *az7q0_qomtv[] = {
/* columns rows colors chars-per-pixel */
"64 64 200 2 ",
"   c None",
".  c #060909",
"X  c #0A0806",
"o  c #030510",
"O  c #080C15",
"+  c #0B1219",
"@  c #171715",
"#  c #27201C",
"$  c #0F1427",
"%  c #151A2D",
"&  c #121B27",
"*  c #171C32",
"=  c #181E35",
"-  c #171C3B",
";  c #181D3E",
":  c #192D2D",
">  c #152828",
",  c #1A2037",
"<  c #1A2038",
"1  c #1D3238",
"2  c #283133",
"3  c #0E1940",
"4  c #191E4B",
"5  c #141D43",
"6  c #191C57",
"7  c #1A1E59",
"8  c #1B2244",
"9  c #1C244B",
"0  c #1F3341",
"q  c #1E2556",
"w  c #1D225C",
"e  c #1A2452",
"r  c #212A4B",
"t  c #222B56",
"y  c #20295B",
"u  c #253055",
"i  c #26335A",
"p  c #323848",
"a  c #1F2561",
"s  c #222C65",
"d  c #242E6A",
"f  c #253165",
"g  c #293662",
"h  c #293962",
"j  c #25326B",
"k  c #28326D",
"l  c #263966",
"z  c #273270",
"x  c #293573",
"c  c #2B3A74",
"v  c #2C377C",
"b  c #2E3C7A",
"n  c #273A71",
"m  c #303F7E",
"M  c #4A3C7D",
"N  c #583B73",
"B  c #61376E",
"V  c #743463",
"C  c #713868",
"Z  c #264548",
"A  c #2E5153",
"S  c #2C4272",
"D  c #2E467B",
"F  c #2E497D",
"G  c #314174",
"H  c #34467D",
"J  c #344A7E",
"K  c #314B77",
"L  c #36547C",
"P  c #38577F",
"I  c #38587F",
"U  c #324666",
"Y  c #386567",
"T  c #3A676A",
"R  c #3B6471",
"E  c #3F7175",
"W  c #504A48",
"Q  c #5B4C7E",
"!  c #704871",
"~  c #426E72",
"^  c #43767A",
"/  c #5A6566",
"(  c #7B7A79",
")  c #942E4C",
"_  c #8D3453",
"`  c #923F59",
"'  c #92405A",
"]  c #8B4661",
"[  c #83506B",
"{  c #825F76",
"}  c #2F3983",
"|  c #2F3B88",
" . c #303A87",
".. c #323E89",
"X. c #3A3C84",
"o. c #433E81",
"O. c #324382",
"+. c #354B81",
"@. c #33438B",
"#. c #374A8B",
"$. c #394E8D",
"%. c #3A4884",
"&. c #3A5C83",
"*. c #39508C",
"=. c #395C8A",
"-. c #365387",
";. c #394F91",
":. c #374890",
">. c #3C5394",
",. c #3F5699",
"<. c #3E5B98",
"1. c #3B5795",
"2. c #3E6388",
"3. c #3C6495",
"4. c #3E6698",
"5. c #434686",
"6. c #43508E",
"7. c #40579B",
"8. c #425C9D",
"9. c #405E97",
"0. c #5D608A",
"q. c #456E96",
"w. c #42639C",
"e. c #436D9C",
"r. c #486D9F",
"t. c #497A96",
"y. c #4A7C9D",
"u. c #46739B",
"i. c #547A9E",
"p. c #4B6990",
"a. c #736584",
"s. c #6C708E",
"d. c #435DA1",
"f. c #4463A2",
"g. c #456CA5",
"h. c #476EA9",
"j. c #4373A2",
"k. c #4A77A1",
"l. c #4C79A2",
"z. c #4672AB",
"x. c #4872AA",
"c. c #4A7CAD",
"v. c #467BA6",
"b. c #567FA7",
"n. c #4A7EB0",
"m. c #4A8384",
"M. c #4E8799",
"N. c #538D9F",
"B. c #539196",
"V. c #6E8592",
"C. c #4C82AE",
"Z. c #4F88AF",
"A. c #5081A4",
"S. c #528BA0",
"D. c #5381A9",
"F. c #538AAA",
"G. c #5693A6",
"H. c #5A9EA4",
"J. c #5692AD",
"K. c #5996AC",
"L. c #5B9DAD",
"P. c #4B83B1",
"I. c #4D8BB3",
"U. c #508DB3",
"Y. c #5394B4",
"T. c #579BB6",
"R. c #5A9DB3",
"E. c #569AB9",
"W. c #659BAB",
"Q. c #6388A3",
"!. c #5BA0A5",
"~. c #5EA5AD",
"^. c #5DA3B5",
"/. c #5BA2B8",
"(. c #5FACB8",
"). c #60A8AF",
"_. c #63A5AC",
"`. c #60A7B3",
"'. c #63ADB6",
"]. c #61ACB9",
"[. c #6CA7B6",
"{. c #63B1B7",
"}. c #66B3B9",
"|. c #68B6BC",
" X c #69B6BC",
".X c #69B8BE",
"XX c #6EB1B7",
"oX c #76B9BF",
"OX c #6ABBC0",
"+X c #74BAC0",
"@X c #928E8D",
"#X c #8BB3B6",
"$X c #A1ADAE",
"%X c #95BDC7",
"&X c #93CDD2",
"*X c #A4D3D7",
"=X c #BED0D4",
"-X c #C4C7C7",
";X c #D0E2E3",
":X c #C8E8EA",
/* pixels */
"                                                                                                                                ",
"                                                                                                                                ",
"                                                                                                                                ",
"                                                                                                                                ",
"                                                                                                                                ",
"                                                                                                                                ",
"                                                                                                                                ",
"                                                                                                                                ",
"                                                                                                                                ",
"                                                                                                                                ",
"                                                                                                                                ",
"                                                                                                                                ",
"                                                                                                                                ",
"                                                                                                                                ",
"                                                                                                                                ",
"                                                                                                                                ",
"                                                                                                                                ",
"                                                                                                                                ",
"                                                                                                                                ",
"                                                                                                                                ",
"                                                                                                                                ",
"                                                                                                                                ",
"                                                                                                                                ",
"                                                                                                                                ",
"                                                                                                                                ",
"                                                                                                                                ",
"                                                                                                                                ",
"                                                                                                                                ",
"                                                                                                                                ",
"                                                                                                                                ",
"                                                                                                                                ",
"                                                                                                                                ",
"                                                                                                                                ",
"                                                                                                                                ",
"                                                                                                                                ",
"                                        7 7 7 7 7 7 7 7 7 7 7 7 7 7 7 7 7 7 7 7 7 7 7 7                                         ",
"                                      s s s s s s s s s f f s s s s s s s s f s s s s s s                                       ",
"                                    j S D F F F J J P P I I I P P P I I I I I I P I I P K l                                     ",
"                          w w 7 6 w n -.4.e.e.e.e.y.M.S.S.S.S.S.S.S.S.S.N.S.S.S.S.S.S.M.p.S w 6 6 7 7                           ",
"                          s s s s j D 3.v.I.I.I.Y.T.^.].'.'.].].].'.'.'.'.'.'.'.'.}.}.~.t.P l s s f f                           ",
"                        d x c b D +.=.j.P.Y.E.E./.].}.}.}.}.}.|..XOXOX.X|.|.}.|.|..X.X].G.t.2.&.&.&.L S                         ",
"                    w s x O.$.1.4.e.v.C.I.Y.T.^.].'.}.}.}.{.}.}.}.|.|.}.}.}.}.}.}.}.}.'.`.L.G.G.G.S.t.L f 7                     ",
"                  a s k b *.w.h.c.P.I.I.U.Y./.'.}.}.}.}. X+XoXXX_.H.!.~.'.}.}.}.}.}.}.].~.H.H.~.'.`.S.2.n s a                   ",
"                s k c H *.w.x.c.P.I.Y.Y.T./.].}.}.}.}.oX&X*X*X#XV.~ ^ B.).}.}.}.}.}.}.).B.^ ~ m.!.].L.y.=.F n s                 ",
"              w s c @.>.w.x.C.P.I.I.Y.T.^.].}.}.}.{.{.+X*X:X;X$X/ 2 Z E !.}.|.}.}.|.}.!.^ Z 1 A m.~.(.Y.v.3.F j w               ",
"            7 w s b $.8.h.c.I.I.I.I.Y.^.].'.`.^.^.R.R.[.%X=X-X@XW @ > Y H.|..X}.}..X}.H.T : + 1 R G./.E.I.j.-.n s a             ",
"            6 w s b ;.f.x.P.I.I.I.I.Y.^.].`.K.A.l.k.l.i.V.V.( W # X > Y H..XOX|.|.OX.XH.Y > . & U q.C.U.I.v.3.+.b x s           ",
"            7 w s b $.f.x.c.I.I.I.I.Y.^.`.L.A.w.>.>.>.-.U p 2 @ X . : T H.|..X}.}..X}.H.T : O $ i *.f.c.P.C.h.<.#.b d w         ",
"            s s x O.>.d.h.c.I.I.I.I.Y.^.].R.A.w.>.:.@.b y * O o o + 0 R S.^.^.R.R.^.^.N.R 1 $ - g *.w.c.C.P.x.f.>.m d w w       ",
"          d x b O.$.,.f.h.c.I.I.I.I.Y.^.].`.K.A.e.1.@.v d e 5 3 5 9 l P q.l.l.l.k.l.l.q.L i e h P u.C.Z.I.P.x.g.>.m d w w       ",
"        w d b $.,.7.8.f.h.c.I.I.I.I.Y.^.].{.].^.J.u.>.@.} v c c c c b @.$.>.>.>.>.>.>.$.O.b G =.y.K.T.T.I.C.x.f.>.m d w w       ",
"      w w d H >.8.d.8.d.g.x.C.P.P.I.Y.T.^.'.}.}.^.F.e.>.5.5.M M M M o.X...............@.@.;.9.k.J.^.^.Y.Z.c.h.f.>.m d w 7       ",
"      7 w d O.,.d.d.d.8.f.g.x.c.P.I.Y.Y.T.^.'.}.'.^.F.i.0.! C V V C B M X.| |  . .|  .@.,.r.D.J.T.T.Y.Z.x.h.g.f.>.H d w w       ",
"      7 w d H >.8.d.8.8.8.d.f.h.c.P.I.I.U.Y.^.].}.'.(.W.s.[ _ ) ) _ V N %.@.@.@.@...@.$.e.F.R.^.T.U.C.x.f.d.d.8.>.m d w w       ",
"        w d b #.>.,.8.8.8.8.d.g.x.c.C.c.C.I.Y.^.].(.'._.V.{ ] ` ' ] ! Q 6.>.>.>.>.;.>.<.k.J.^./.Y.C.x.g.d.7.,.>.#.b d w         ",
"          d z c O.#.,.d.d.d.d.f.g.h.h.h.h.x.Z.Y.T././.R.Q.s.a.a.a.a.0.p.r.g.g.g.g.g.g.j.C.Y.T.Y.c.j.g.f.d.,.#.m c z s           ",
"            w s k b $.7.8.8.8.8.8.f.d.d.f.g.c.P.I.U.I.U.F.D.D.b.b.b.D.C.C.C.C.C.C.C.C.C.P.I.I.c.h.f.8.8.8.;.b k s w             ",
"            4 4 q f G +.+.+.+.*.,.8.d.8.d.f.h.c.c.n.c.n.n.P.P.P.P.P.P.P.P.P.P.P.P.P.P.P.P.P.c.x.g.8.7.>.$.O.j q 6 4             ",
"            ; ; 8 9 t i i i h G $.8.d.d.d.f.g.h.h.h.h.h.x.z.z.z.z.z.z.z.x.x.x.x.x.x.x.x.x.h.h.h.f.d.>.#.b j t 8 ; -             ",
"            = = = = < < , , 8 i H >.8.8.7.7.7.8.8.8.8.8.8.8.8.8.8.8.8.8.8.8.8.8.8.8.8.8.8.8.8.8.8.7.$.b s q 8 ; = *             ",
"              % % % % % % % = r h G J J J J H H H H H H H H H H H H H H H H H H H H H H H H H J J H c f q 4 ; = %               ",
"                  % % % % % * < r t u u u u u u u u u u u u u u u u u u u u u u u u u u u u u u u u t 9 5 ; =                   ",
"                  * * * * * * = = < < < < < < < < < < < < < < < < < < < < < < < < < < < < < < < < < = = = = *                   ",
"                    * * * * * % % % % % % % % % % % % % % % % % % % % % % % % % % % % % % % % % % % % % % %                     "
};
