/* XPM */
static char *azxib_n2f5v[] = {
/* columns rows colors chars-per-pixel */
"64 64 198 2 ",
"   c None",
".  c #0A0E0E",
"X  c #070605",
"o  c #0A1112",
"O  c #0F1D1E",
"+  c #1D1D1D",
"@  c #151617",
"#  c #141D28",
"$  c #171C31",
"%  c #122223",
"&  c #162728",
"*  c #17282A",
"=  c #192C2D",
"-  c #1A2324",
";  c #1C3334",
":  c #1E393C",
">  c #262E2F",
",  c #213A3C",
"<  c #3B3534",
"1  c #453F3E",
"2  c #1B1F5A",
"3  c #191B56",
"4  c #1C225C",
"5  c #1F2660",
"6  c #1F2861",
"7  c #212B64",
"8  c #242E69",
"9  c #202763",
"0  c #253267",
"q  c #25336A",
"w  c #26386F",
"e  c #293A6C",
"r  c #2A3674",
"t  c #2A3C73",
"y  c #2D3C7A",
"u  c #273970",
"i  c #303F7F",
"p  c #79335C",
"a  c #5D336B",
"s  c #543974",
"d  c #45377A",
"f  c #2A474A",
"g  c #2E555A",
"h  c #2C5357",
"j  c #31555B",
"k  c #32595B",
"l  c #36585B",
"z  c #335E62",
"x  c #2C4275",
"c  c #2C4479",
"v  c #2F4A7D",
"b  c #30407F",
"n  c #324D7C",
"m  c #304975",
"M  c #37567E",
"N  c #386367",
"B  c #396468",
"V  c #3C696D",
"C  c #3E6D71",
"Z  c #535757",
"A  c #635E5D",
"S  c #684471",
"D  c #7A5878",
"F  c #437679",
"G  c #447A7C",
"H  c #5E7778",
"J  c #686564",
"K  c #98354E",
"L  c #852E53",
"P  c #892C50",
"I  c #873D5C",
"U  c #923853",
"Y  c #835572",
"T  c #837E7E",
"R  c #2F3D89",
"E  c #2F3D80",
"W  c #343A85",
"Q  c #313D89",
"!  c #3F3B80",
"~  c #324382",
"^  c #3D4386",
"/  c #324B83",
"(  c #35448C",
")  c #374B8C",
"_  c #384D8F",
"`  c #394489",
"'  c #335285",
"]  c #3B5D84",
"[  c #365389",
"{  c #355C8D",
"}  c #39578F",
"|  c #3A4D92",
" . c #374891",
".. c #3C5394",
"X. c #3D5C99",
"o. c #3A5D93",
"O. c #3C6086",
"+. c #3F6688",
"@. c #3B6494",
"#. c #3E6896",
"$. c #3F6C9A",
"%. c #3F629B",
"&. c #454987",
"*. c #5C5E8B",
"=. c #405E9B",
"-. c #415F97",
";. c #416A8B",
":. c #416F82",
">. c #437285",
",. c #467C81",
"<. c #487C83",
"1. c #426296",
"2. c #41639B",
"3. c #466B9B",
"4. c #476693",
"5. c #467493",
"6. c #41719F",
"7. c #49739F",
"8. c #4B7F98",
"9. c #5C789F",
"0. c #716A8A",
"q. c #646E92",
"w. c #63779A",
"e. c #60799D",
"r. c #4567A5",
"t. c #456DA3",
"y. c #4475A4",
"u. c #4579A5",
"i. c #487CA7",
"p. c #4875AB",
"a. c #477CA8",
"s. c #4A7CAB",
"d. c #4974A5",
"f. c #587DA4",
"g. c #4B7EB0",
"h. c #607EA1",
"j. c #4E8A8D",
"k. c #4A8387",
"l. c #4F829D",
"z. c #518B99",
"x. c #549196",
"c. c #549499",
"v. c #589A9E",
"b. c #658C8F",
"n. c #4A84AD",
"m. c #4F87A3",
"M. c #5185A4",
"N. c #538CA3",
"B. c #548CAB",
"V. c #5385AC",
"C. c #5A9DA4",
"Z. c #5B9DAB",
"A. c #5693A9",
"S. c #4C85B1",
"D. c #4D8BB4",
"F. c #518DB4",
"G. c #5293B5",
"H. c #569AB6",
"J. c #5A9EB5",
"K. c #5394B8",
"L. c #589EB8",
"P. c #5598B9",
"I. c #659FA4",
"U. c #5BA0A6",
"Y. c #5EA3AC",
"T. c #5DA3B5",
"R. c #5CA3B9",
"E. c #5FA8B8",
"W. c #60A8AE",
"Q. c #60A6B2",
"!. c #62ACB5",
"~. c #62ADB8",
"^. c #64B0B7",
"/. c #65B2B9",
"(. c #69B6BC",
"). c #67B8BD",
"_. c #69B9BE",
"`. c #70B7BD",
"'. c #72B8BE",
"]. c #79B3B8",
"[. c #6CBDC4",
"{. c #7EBFC5",
"}. c #8EB6BA",
"|. c #A0B9BB",
" X c #B5B5B5",
".X c #A7ABAB",
"XX c #C2BCBC",
"oX c #C6C0BF",
"OX c #83BFC5",
"+X c #9ACED3",
"@X c #87C4C9",
"#X c #A4D4D9",
"$X c #B2D5D8",
"%X c #CCE7EA",
"&X c #DCF4F6",
"*X c #DCE9EA",
"=X c #F3F7F7",
"-X c #E2E7E8",
/* pixels */
"                                                                                                                                ",
"                                                                                                                                ",
"                                                                                                                                ",
"                                                                                                                                ",
"                                                                                                                                ",
"                                                                                                                                ",
"                                                                                                                                ",
"                                                                                                                                ",
"                                                                                                                                ",
"                                                                                                                                ",
"                                                                                                                                ",
"                                                                                                                                ",
"                                              4 4 4 4 4 4 4 4 4 4 4 4 4 4 4 4 4 4                                               ",
"                                            0 q q q q q q q q q q q q q q q q q q 0                                             ",
"                                          0 x / ' ' ' ' ' ' ' ' ' ' ' ' ' ' ' ' / x 8                                           ",
"                                        4 w ' $.u.u.u.y.y.y.y.y.y.y.y.y.y.u.u.y.$.' w 4 2 4 4 4                                 ",
"                                      7 w c @.a.D.G.G.G.G.G.G.G.G.G.G.G.G.G.G.G.n.#.n e e e e e                                 ",
"                                    q c ' @.y.n.G.P.L.R.R.R.R.R.R.R.R.R.R.R.R.R.H.m.5.;.;.;.;.M x 4                             ",
"                                2 6 t { 6.a.n.D.G.P.E.~.~.~.~.~.~.~.~.~.~.~.~.~.~.T.Z.Z.Z.Z.A.5.n 7 2                           ",
"                                q u / #.n.D.G.G.H.T.~.^.^.^.^.^.^.^.^.^.^.^.^.^.^.^.^.(.(._.~.N.+.x e 0                         ",
"                            7 u n { #.u.S.G.P.J.T.~.~.^.^.^.^.^.^.^.^.(._._.(.^.^.(.(.(._.[.(.T.z.5.] m 0                       ",
"                          2 7 c @.u.n.S.D.G.J.E.~.^.^.^.^.^.^.^.^.^.^.^.^.^.^.^.^.^.^.^.^.^.~.~.Q.Z.8.M 0 4                     ",
"                          2 7 c #.n.D.D.D.G.J.~.^.^.^.^.^.^./.'.{.OX].I.x.x.C.Q.^.(.^.!.U.c.x.v.W.Q.N.] 0 4                     ",
"                          2 7 c #.n.D.D.D.G.J.~.^.^.^.^.^.^.(.@X#X$X|.b.l z <.C.^.[.(.Y.k.N j C x.W.N.] q 4                     ",
"                          2 7 c #.n.D.D.D.G.J.~.^.^.^.^.^.~.`.+X%X*X XJ > ; z c.^.[.(.C.C , % f <.Y.N.] q 4                     ",
"                          2 7 c #.n.F.G.H.H.E.~.^.^.^.^.~.~.'.#X&X=XXXJ + O h c.^.[.(.C.N * o ; F C.N.] q 4                     ",
"                          2 7 c #.n.G.P.T.E.~.~.^.^.^.^.~.~.'.#X&X=XoXJ + O h c.^.[.(.C.N * o ; F C.N.] q 4                     ",
"                          2 7 c @.n.H.R.~.~.^.^.^.^.^.^.~.~.`.+X%X-X XA + % g c.^.[.(.C.B = o , F C.N.] q 4                     ",
"                          2 7 c @.n.P.R.~.^.^.^.^.^.^.^./.^./.}.|..XT 1 @ % g c.^.[.(.C.B * o ; F U.N.O.q 4                     ",
"                          2 7 c @.n.P.R.~.(.^.^.^.^.(.(.).).!.v.H Z < @ X % k c.^.[.(.C.N & . ; F Y.N.O.q 4                     ",
"                          2 7 c #.n.H.R.~.^.^.^.^.~.~.~.^.^.Y.<.f - . X . = N c.^.[.(.C.V ; O , F C.N.] 0 4                     ",
"                          2 7 c #.n.K.L.T.~.~.^.~.T.A.B.B.B.M.:.g : ; ; , g G U.(.[._.Y.k.k f j >.l.5.n 7 4                     ",
"                          2 7 c #.n.K.G.H.J.E.~.Q.B.7.1.=.1.1.;.>.F F F G j.v.!.(._.(.!.C.j.<.>.;.1.) t 8 4                     ",
"                          2 7 c @.a.S.D.D.G.T.~.J.M.1._ ( ( _ 1.M.Z.Y.Y.Y.Y.Q.~.~.~.~.~.Q.Y.Z.M.3._ E q 5 4                     ",
"                            7 t ' @.6.a.S.G.P.T.J.B.7.1...` ` ..d.B.G.G.G.B.B.B.B.B.B.B.B.B.B.s.t.X./ r 8 4                     ",
"                              q u c ' $.n.D.G.G.G.G.A.M.3...( ( ..%.2.2.%.2.1.1.1.1.1.1.1.1.2.t.d.d.o.c 7 4                     ",
"                                4 8 t o.a.D.D.D.G.J.E.J.M.1.) ` ` ^ ^ ^ ^ ^ ` ( ( ( ( ( ( ( ) X.y.u.#.v 7 4                     ",
"                                3 4 w [ t.g.S.D.F.P.R.J.B.y.-.&.s a a a a s d W Q R Q Q ( (  ...o.@.{ c 7                       ",
"                                2 4 q / 2.p.s.S.D.G.G.G.D.n.d.*.S L P P L p s ! Q R Q (  .| .._ ~ t u q                         ",
"                                4 5 q ~ ..2.d.s.S.S.S.S.D.D.V.q.D I K K U I S &.) ( ( ( | ....~ r 8 4                           ",
"                                  5 8 r b ) X.t.s.s.p.s.S.D.F.h.0.D Y Y Y D *.4.X.X...| ) ( ~ y 8 4                             ",
"                                      8 8 y ) =.r.r.r.t.p.S.F.V.M.e.w.w.w.9.f.s.p.t.=...~ y q 8 7                               ",
"                                      4 4 8 y _ ......X.2.y.u.a.a.i.i.i.i.a.a.a.y.t.=.| ~ q 5 4                                 ",
"                                          8 r y i i i ~ / [ { { { { { { { { { { { ' / b r 8 4                                   ",
"                                            8 8 8 8 8 8 q w w w w w w w w w w w w q q 8 8                                       ",
"                                              4 4 4 4 4 4 4 4 4 4 4 4 4 4 4 4 4 4 4 4 4 4                                       ",
"                                                  4                               2                                             ",
"                                                                                                                                ",
"                                                                                                                                ",
"                                          $ $                                             $ $ $ $                               ",
"                                      $ $ $ $ $ $ $ $ $ $ $ $ $ $ $ $ $ $ $ $ $ $ $ $ $ $ $ $ $ $ $ $                           ",
"                                      $ $ $ $ $ $ $ $ $ $ $ $ $ $ $ $ $ $ $ $ $ $ $ $ $ $ $ $ $ $ $ $ $                         ",
"                                  $ $ $ $ $ $ $ $ $ $ $ $ $ $ $ $ $ $ $ $ $ $ $ $ $ $ $ $ $ $ $ $ $ $ $ $                       ",
"                                $ $ $ $ $ $ $ $ $ $ $ $ $ $ $ $ $ $ $ $ $ $ $ $ $ $ $ $ $ $ $ $ $ $ $ $ $ $                     ",
"                                $ $ $ $ $ $ $ $ $ $ $ $ $ $ $ $ $ $ $ $ $ $ $ $ $ $ $ $ $ $ $ $ $ $ $ $ $ $                     ",
"                                $ $ $ $ $ $ $ $ $ $ $ $ $ $ $ $ $ $ $ $ $ $ $ $ $ $ $ $ $ $ $ $ $ $ $ $ $ $                     ",
"                                $ $ $ $ $ $ $ $ $ $ $ $ $ $ $ $ $ $ $ $ $ $ $ $ $ $ $ $ $ $ $ $ $ $ $ $ $ $                     ",
"                                $ $ $ $ $ $ $ $ $ $ $ $ $ $ $ $ $ $ $ $ $ $ $ $ $ $ $ $ $ $ $ $ $ $ $ $ $ $                     ",
"                                $ $ $ $ $ $ $ $ $ $ $ $ $ $ $ $ $ $ $ $ $ $ $ $ $ $ $ $ $ $ $ $ $ $ $ $ $ $                     ",
"                                $ $ $ $ $ $ $ $ $ $ $ $ $ $ $ $ $ $ $ $ $ $ $ $ $ $ $ $ $ $ $ $ $ $ $ $ $ $                     ",
"                                  $ $ $ $ $ $ $ $ $ $ $ $ $ $ $ $ $ $ $ $ $ $ $ $ $ $ $ $ $ $ $ $ $ $ $ $ $                     ",
"                                    $ $ $ $ $ $ $ $ $ $ $ $ $ $ $ $ $ $ $ $ $ $ $ $ $ $ $ $ $ $ $ $ $ $                         ",
"                                      $ $ $ $ $ $ $ $ $ $ $ $ $ $ $ $ $ $ $ $ $ $ $ $ $ $ $ $ $ $ $ $                           ",
"                                      $ $ $ $ $ $ $ $ $ $ $ $ $ $ $ $ $ $ $ $ $ $ $ $ $ $ $ $ $ $ $ $                           "
};
