/* XPM */
static char *acey0_f76t3[] = {
/* columns rows colors chars-per-pixel */
"64 64 194 2 ",
"   c None",
".  c #0F1427",
"X  c #151A2C",
"o  c #1A1F2F",
"O  c #171C32",
"+  c #181E35",
"@  c #181D3D",
"#  c #161B3A",
"$  c #1A2038",
"%  c #1B2D3D",
"&  c #16242A",
"*  c #223031",
"=  c #191E41",
"-  c #191E4B",
";  c #191B57",
":  c #1A1E59",
">  c #1B2143",
",  c #1C234A",
"<  c #1D2354",
"1  c #1D235D",
"2  c #212A4B",
"3  c #203D40",
"4  c #21295A",
"5  c #212C53",
"6  c #253156",
"7  c #243259",
"8  c #29365F",
"9  c #1F2862",
"0  c #222D65",
"q  c #242D69",
"w  c #253164",
"e  c #25336B",
"r  c #28346D",
"t  c #293A69",
"y  c #2B3775",
"u  c #2C3E73",
"i  c #2E3C7B",
"p  c #303C7C",
"a  c #742F5B",
"s  c #6D325F",
"d  c #77345E",
"f  c #4C3B7A",
"g  c #473B7B",
"h  c #593B73",
"j  c #633B6E",
"k  c #733A67",
"l  c #254142",
"z  c #335A5E",
"x  c #365C6C",
"c  c #2C4173",
"v  c #2E487D",
"b  c #2C4479",
"n  c #34477C",
"m  c #344A7D",
"M  c #354673",
"N  c #35537D",
"B  c #38577F",
"V  c #38587F",
"C  c #3C6869",
"Z  c #3C6E73",
"A  c #4E4F5C",
"S  c #58437C",
"D  c #6B4B7D",
"F  c #7B4A6E",
"G  c #596161",
"H  c #417376",
"J  c #962E4A",
"K  c #8C3657",
"L  c #873D60",
"P  c #2F3D89",
"I  c #323C87",
"U  c #313E89",
"Y  c #3B3D84",
"T  c #463E80",
"R  c #334483",
"E  c #3C4284",
"W  c #324B81",
"Q  c #33438B",
"!  c #354A8C",
"~  c #394D8E",
"^  c #3C478F",
"/  c #335284",
"(  c #395A80",
")  c #3A508B",
"_  c #395F8D",
"`  c #36548A",
"'  c #374991",
"]  c #3A4F91",
"[  c #374790",
"{  c #3B5293",
"}  c #3C5C94",
"|  c #3E5599",
" . c #3D5C99",
".. c #3D6387",
"X. c #3B6494",
"o. c #3E619D",
"O. c #3E6998",
"+. c #424A8C",
"@. c #5E4E86",
"#. c #4F508F",
"$. c #535285",
"%. c #455495",
"&. c #495593",
"*. c #40579A",
"=. c #425C9D",
"-. c #684D80",
";. c #61568B",
":. c #416987",
">. c #41649C",
",. c #4B669C",
"<. c #416E9D",
"1. c #436795",
"2. c #49739E",
"3. c #46779A",
"4. c #566299",
"5. c #65638B",
"6. c #69729A",
"7. c #435DA0",
"8. c #4464A3",
"9. c #466CA6",
"0. c #476EA9",
"q. c #486DA9",
"w. c #4C6DA6",
"e. c #5962A2",
"r. c #4475A3",
"t. c #4B76A1",
"y. c #4C7EA4",
"u. c #4772A9",
"i. c #4873AB",
"p. c #4779A9",
"a. c #4A7CAD",
"s. c #467BA7",
"d. c #5279A5",
"f. c #4A7FB0",
"g. c #4C8A8D",
"h. c #578788",
"j. c #4E859D",
"k. c #518A9E",
"l. c #56959C",
"z. c #57999F",
"x. c #4B83AD",
"c. c #5184A5",
"v. c #528BA0",
"b. c #5883A8",
"n. c #599CA4",
"m. c #5591AC",
"M. c #5A9BAD",
"N. c #5897A7",
"B. c #4A83B2",
"V. c #4E8BB3",
"C. c #518CB2",
"Z. c #5494B5",
"A. c #5699B5",
"S. c #5B9DB3",
"D. c #5294B8",
"F. c #569AB8",
"G. c #7982B6",
"H. c #5DA3A9",
"J. c #5DA4B6",
"K. c #5CA4B8",
"L. c #60AAAE",
"P. c #63A1A6",
"I. c #60A4B3",
"U. c #63ADB6",
"Y. c #63AEB8",
"T. c #6CADBA",
"R. c #7CA5BE",
"E. c #63B0B7",
"W. c #65B1B8",
"Q. c #64B0B8",
"!. c #65B2B8",
"~. c #66B3B9",
"^. c #66B2B9",
"/. c #66B3BB",
"(. c #67B4BA",
"). c #67B5BA",
"_. c #66B3B9",
"`. c #68B6BB",
"'. c #68B7BB",
"]. c #68B6BD",
"[. c #68B6BD",
"{. c #69B9BD",
"}. c #73B1B6",
"|. c #7ABAC1",
" X c #8698BF",
".X c #8C92AE",
"XX c #8FB2B2",
"oX c #A4ADAC",
"OX c #B0B6D5",
"+X c #BFCEDF",
"@X c #ADD2D4",
"#X c #A1C8D3",
"$X c #C2C5D6",
"%X c #D1DDE1",
/* pixels */
"                                                                                                                                ",
"                                                                                                                                ",
"                                                                                                                                ",
"                                                                                                                                ",
"                                                                                                                                ",
"                                                                                                                                ",
"                                                                                                                                ",
"                                                                                                                                ",
"                                                                                                                                ",
"                                                                                                                                ",
"                                                                                                                                ",
"                                                                                                                                ",
"                                                                                                                                ",
"                                                                                                                                ",
"                                                                                                                                ",
"                                                                                                                                ",
"                                                                                                                                ",
"                                                                                                                                ",
"                                                                                                                                ",
"                                                                                                                                ",
"                                                                                                                                ",
"                                                                                                                                ",
"                                                                                                                                ",
"                                                                                                                                ",
"                                                                                                                                ",
"                                                                                                                                ",
"                                                                                                                                ",
"                                                                                                                                ",
"                                                                                                                                ",
"                                                                                                                                ",
"                                                                                                                                ",
"                                                                                                                                ",
"                                                                                                                                ",
"                                                                                                                                ",
"                                                                                                                                ",
"                                  : : : : : : : : : : : : : : : : : : : : : : : : : : : : : :                                   ",
"                                0 0 0 0 0 0 0 0 0 0 0 0 0 0 0 0 0 0 0 0 0 0 0 0 0 0 0 0 0 0 0 0                                 ",
"                              e c v v v v m N B B V V B V V V V B B V B B B V V V V V V V V B m t                               ",
"                          ; 9 u ` O.<.<.<.3.3.j.v.v.v.v.k.k.k.k.v.v.v.v.v.v.v.k.v.v.k.k.v.v.j.:.M 0 ;                           ",
"                          0 e m O.x.V.V.V.Z.S.I.Y.Y.Y.U.Y.Y.Y.Y.U.U.U.U.Y.Y.Y.Y.Y.Y.Y.Y.Q.Q.J.j.( t 0                           ",
"                        r b / X.r.V.D.F.F.K.Y.Q.`.'.'.`.`.`.`.`.`.`.'.'.`.`.`.`.`.`.`.`.{.{.Q.N.3...N c                         ",
"                    : 0 b _ <.s.x.V.Z.S.K.Y.Q.Q.Q.~.~.Q.Q.Q.Q.Q.Q.Q.~.Q.Q.Q.Q.Q.Q.Q.Q.Q.~.~.Q.I.M.v.3.N w 1                     ",
"                  1 0 e W <.x.V.V.Z.A.J.Y.Q.Q.Q.Q.Q.Q.Q.Q.Q.Q.Q.Q.Q.Q.Q.Q.Q.Q.Q.Q.Q.Q.Q.Q.Q.Q.~.~.I.k.( w 1                     ",
"                0 q y R } r.V.D.A.S.J.I.Q.Q.Q.Q.Q.Q.Q.Q.Q.Q.Q.Q.Q.Q.Q.Q.Q.Q.Q.Q.Q.Q.Q.Q.Q.Q.Q.'.{.Q.k.V w :                     ",
"              1 0 y R { 8.p.V.A.K.I.Y.Q.Q.Q.Q.Q.Q.Q.Q.Q.Q.Q.Q.Q.Q.Q.Q.Q.Q.Q.Q.Q.Q.Q.Q.Q.Q.Q.Q.~.'.U.k.V w :                     ",
"            : 1 0 i ~ =.0.a.V.A.J.Y.Q.Q.Q.Q.Q.Q.Q.Q.Q.Q.Q.Q.Q.Q.Q.Q.Q.Q.Q.Q.Q.Q.Q.Q.Q.Q.Q.Q.Q.~.~.U.v...c 0 9                   ",
"            : 1 0 i ] 8.u.a.V.A.J.Q.~.Q.Q.Q.~.~.~.~.~.~.Q.E.U.E.(.'.'.~.Q.Q.Q.Q.Q.Q.Q.Q.~.'.'.{.{.Q.M.3._ W u w                 ",
"            : 1 0 i ] 8.0.a.V.A.J.Y.Q.Q.Q.Q.Q.Q.Q.Q.Q.Q.Q.Q.Q.Q.Q.Q.Q.Q.Q.Q.Q.Q.Q.Q.Q.Q.Q.Q.Q.~.~.Q.J.m.s.O.W e 1               ",
"            : 1 0 i ~ 7.0.a.V.A.J.Y.Q.Q.Q.U.I.J.M.M.M.I.T.|.|.}.P.l.z.H.Y.Q.Q.Q.Q.Q.Q.Y.H.n.l.l.N.M.S.A.V.r./ e 1 ;             ",
"            : 1 0 i ~ 7.0.a.V.A.J.Q.~.~.Q.J.m.y.2.<.2.b.R.#X@XXXh.C C g.L.`.{.~.~.{.`.L.g.Z z x :.2.y.C.V.r./ e 1 ;             ",
"            : 1 0 i ~ =.0.a.V.A.J.Y.~.~.Q.S.y.1.{ ! ~ ,. X+X%XoXG * 3 Z H.~.'.Q.Q.'.Q.H.H l & % t ) >.a.x.r./ e 1 ;             ",
"            : 1 q i ] 7.9.i.x.Z.S.J.Y.Q.Y.S.c.1.{ Q U %.G.OX$X.XA o % x k.S.J.S.S.S.S.k.x % . # w !  .u.p.<.W e 1 :             ",
"            1 1 q i { 7.8.9.u.a.C.A.K.Y.Y.I.M.c.2.} ! ^ e.G. X6.M 5 7 m 1.t.t.2.2.t.t.1.m 7 , w m o.9.u.9. .n q 1 :             ",
"            : 1 0 i ~ =.7.7.8.u.a.C.A.J.U.Y.Y.I.m.2.{ ! ^ %.&.+.E p p R ~ { ] ] ] { ] ~ R i i ` <.s.a.u.8.{ i q 1 :             ",
"            - < 4 r R ] | *.=.8.u.a.C.A.J.Y.Y.Y.S.x.1.{ E g g f f f T Y I U U U U U U Q ! ' | >.u.a.a.0.=.] i q 1 :             ",
"            = = , 4 r i ! | 7.8.8.9.p.C.A.S.K.S.A.V.s.,.$.j s a d k j f Y U P U U I U Q { o.9.u.u.u.9.8.7.] i q 1 :             ",
"            O + @ , < q i ~ *.=.=.8.9.a.V.C.C.V.V.V.B.d.5.F K J J K d h Y Q Q Q Q U Q !  .u.a.p.9.8.7.7.=.~ i 0 1 :             ",
"            X O + @ - < w u W ) { =.8.u.a.a.f.a.f.B.B.d.5.F L K K K k S +.' ' ' ' [ [ ] >.u.a.i.9.7.*.| ~ R r 4 < -             ",
"            X O O + @ > , 5 8 c ~ =.8.9.0.0.0.0.0.i.i.w.4.;.-.D D -.@.#.%.| | | | | | | 8.9.q.q.8.7.| ! i e 4 , = @             ",
"            O O O O + + + + > 7 n { =.=.=.=.=.=.=.=.=.=.*.%.&.&.&.&.%.%.*.| | | | | | *.*.*.=.=.=.| ! i 0 < > @ + O             ",
"              O O O O X X X + 2 t n m m n n n n n n n n m m W W W W m m m m m m m m m m m n n m m n u 0 < - @ + X               ",
"                  O O O X X O $ 2 6 6 6 6 6 6 6 6 6 6 6 6 6 7 7 7 7 6 6 6 6 6 6 6 6 6 6 6 6 6 6 6 6 2 , = @ #                   ",
"                  O O O O O O + + $ $ $ $ $ $ $ $ $ $ $ $ $ $ $ $ $ $ $ $ $ $ $ $ $ $ $ $ $ $ $ $ $ + + + + +                   ",
"                    O O O O O X X X X X X X X X X X X X X X X X X X X X X X X X X X X X X X X X X X X X X X                     "
};
