/* XPM */
static char *a59ez_amalc[] = {
/* columns rows colors chars-per-pixel */
"64 64 197 2 ",
"   c None",
".  c #070505",
"X  c #080C0D",
"o  c #150F0E",
"O  c #0A1213",
"+  c #0F1A1B",
"@  c #0D1718",
"#  c #141717",
"$  c #111F20",
"%  c #171C31",
"&  c #182E30",
"*  c #1C3436",
"=  c #1F3739",
"-  c #17292B",
";  c #213A3D",
":  c #223638",
">  c #312F2F",
",  c #191B56",
"<  c #1A1D59",
"1  c #1C215C",
"2  c #1F2760",
"3  c #1F2861",
"4  c #212B64",
"5  c #242D6A",
"6  c #25336B",
"7  c #28356E",
"8  c #27386F",
"9  c #28396D",
"0  c #293572",
"q  c #293D73",
"w  c #2C3979",
"e  c #273A71",
"r  c #7A2C58",
"t  c #74305D",
"y  c #5F336A",
"u  c #4D3877",
"i  c #4A3A79",
"p  c #523A76",
"a  c #733863",
"s  c #2A4B4E",
"d  c #274548",
"f  c #2D4F52",
"g  c #2D5053",
"h  c #2E5559",
"j  c #39484A",
"k  c #355D61",
"l  c #2C4276",
"z  c #2C4479",
"x  c #2F4A7E",
"c  c #2F4876",
"v  c #314A77",
"b  c #314C7B",
"n  c #35537C",
"m  c #376165",
"M  c #3B696D",
"N  c #386364",
"B  c #3E6E72",
"V  c #3E7175",
"C  c #4C4140",
"Z  c #4D595A",
"A  c #6F416B",
"S  c #704E76",
"D  c #406C70",
"F  c #44787D",
"G  c #477478",
"H  c #757171",
"J  c #972E4A",
"K  c #96304C",
"L  c #8C3454",
"P  c #923451",
"I  c #8B4A64",
"U  c #8A4864",
"Y  c #825F77",
"T  c #837E7E",
"R  c #2E3A88",
"E  c #353B85",
"W  c #313D88",
"Q  c #3B3B82",
"!  c #2F4B80",
"~  c #334483",
"^  c #324E82",
"/  c #33438B",
"(  c #374B8D",
")  c #394C8E",
"_  c #3B4287",
"`  c #335284",
"'  c #3B5C86",
"]  c #36598A",
"[  c #385E8E",
"{  c #3A538E",
"}  c #3B5592",
"|  c #3D5A94",
" . c #385698",
".. c #3C5998",
"X. c #3B628F",
"o. c #3B6494",
"O. c #3E6997",
"+. c #3D6B99",
"@. c #3F649A",
"#. c #415C94",
"$. c #415794",
"%. c #4E4E86",
"&. c #635D83",
"*. c #41678C",
"=. c #457D82",
"-. c #416395",
";. c #416B95",
":. c #43669C",
">. c #436D9C",
",. c #486F9D",
"<. c #457494",
"1. c #44729D",
"2. c #48719D",
"3. c #4A7D9A",
"4. c #487997",
"5. c #56759D",
"6. c #6E6D8E",
"7. c #706B8C",
"8. c #787185",
"9. c #666E93",
"0. c #757F92",
"q. c #697897",
"w. c #446BA1",
"e. c #4466A1",
"r. c #4473A2",
"t. c #4A74A3",
"y. c #467AA4",
"u. c #4C7CA3",
"i. c #4574A8",
"p. c #4876A9",
"a. c #4B7CAB",
"s. c #507FA8",
"d. c #498085",
"f. c #4B858B",
"g. c #4E898E",
"h. c #598185",
"j. c #4E849D",
"k. c #4F8B90",
"l. c #518A9B",
"z. c #508C90",
"x. c #539196",
"c. c #54959A",
"v. c #57999F",
"b. c #4D82A6",
"n. c #4B82AC",
"m. c #4E89AD",
"M. c #5083A6",
"N. c #528CAB",
"B. c #538BA6",
"V. c #5A9CA2",
"C. c #5492AC",
"Z. c #5895AD",
"A. c #5A9AAD",
"S. c #5597A6",
"D. c #4C87B0",
"F. c #4E8BB3",
"G. c #508AB4",
"H. c #5394B4",
"J. c #569AB6",
"K. c #5A9DB3",
"L. c #5192B8",
"P. c #569AB8",
"I. c #5A9AB6",
"U. c #6898A8",
"Y. c #799FA3",
"T. c #6389A6",
"R. c #5CA1A6",
"E. c #5EA4AB",
"W. c #5DA3B5",
"Q. c #5DA5B9",
"!. c #5EA8BB",
"~. c #61A6AC",
"^. c #62ADB5",
"/. c #6CACB2",
"(. c #63ADB9",
"). c #61A7B5",
"_. c #63B0B7",
"`. c #67B4BA",
"'. c #67B5BA",
"]. c #65B2B9",
"[. c #68B6BD",
"{. c #69B6BC",
"}. c #69B9BE",
"|. c #74B8BF",
" X c #79B9BF",
".X c #6BBBC2",
"XX c #78BBC2",
"oX c #818D8E",
"OX c #939FA0",
"+X c #83ABAE",
"@X c #BEBFBF",
"#X c #8DC9CF",
"$X c #A2CBCE",
"%X c #A3CED2",
"&X c #A6D6DA",
"*X c #C7D7D9",
"=X c #CDE9EC",
/* pixels */
"                                            < < < < < < < < < < < < <                                                           ",
"                                            4 4 4 4 4 4 4 4 4 4 4 4 4                                                           ",
"                                            e l z b n n n n n b x z q 7                                                         ",
"                                        1 6 x o.>.4.j.j.l.l.j.3.1.+.] l 3 , , < <                                               ",
"                                      1 5 q [ y.H.K.W.^.^.^.^.Q.P.m.1.` 9 5 4 5 5 4                                             ",
"                                    5 e x ] 1.N.Q.(.].`.{.{.`.(.!.K.B.<.' n b b z q 5                                           ",
"                                  1 8 ` O.y.N.W.(.].].].`.`.].].(.^.W.S.B.b.3.1.o.^ 6 1                                         ",
"                                4 6 z o.n.H.Q.^.].].].].].].].]._._._._.^.!.K.H.y.[ l 5 3                                       ",
"                              7 l ^ X.y.H.Q.(.].]._.^.^.].`.[.`.`.].].`.`.`.].!.H.y.[ x q 6                                     ",
"                          < 4 l ] >.b.C.Q.(.].].]._.^._.].].`.`.].].].].].].`.(.W.H.a.+.` e 2 <                                 ",
"                          < 4 z o.n.H.Q.^.].].].`.{.XX|./.~.V.R.^.^.].]._.^.E.V.S.S.H.n.X.q 2 <                                 ",
"                          , 3 l o.m.P.Q.(._._.].|.#X&X%X+Xh.D F c.^.`.[._.R.f.D B f.S.C.;.c 4 <                                 ",
"                          < 4 l o.m.P.Q.(._._.].XX&X=X*XOXZ : s =.E.}..X^.x.m ; ; m l.A.<.v 4 <                                 ",
"                          5 8 ` >.m.P.Q.(.]._.]. X$X*X@XT > @ * V E..X.X^.g.s + + g k.A.3.b 4 <                                 ",
"                      5 q x ] ;.b.J.W.(.(.].].]./.Y.oXH C # . & B E..X.X^.f.d O O s g.A.3.b 4 ,                                 ",
"                    1 5 z o.y.m.K.W.(.].].].`.].V.G j > o . X = G E..X.X^.g.s + + g k.A.3.b 4 ,                                 ",
"                    1 5 x +.F.P.Q.(.].].].].[.].V.B ; $ O @ - g d.E.}..X^.x.k = = N c.A.3.v 4 <                                 ",
"                    1 5 x >.F.P.!.].`.`.`.{.}.`.E.f.M h g h m F c.^.`.[._.V.d.M M f.R.E.4.v 4 ,                                 ",
"                    1 5 x +.F.P.Q.^.].].].].].].^.E.V.c.c.c.v.R.~.^.].].].^.R.V.V.E.^.E.<.v 4 <                                 ",
"                    1 5 x +.F.P.Q.W.W.W.A.A.A.A.K.).(.`.[.`.`.`.].].].].].].`.`.].(.W.B.*.l 4 <                                 ",
"                    1 5 x +.D.L.P.P.C.b.2.,.,.2.u.Z.(.}..X.X}.}.[.`.`.`.`.{.}.}.(.K.M.;.^ 7 2 <                                 ",
"                    1 5 x +.D.L.L.F.a.>.| ) ( ) #.u.K.(.`.].].].]._.(._.].].].].W.M.:.( w 5 1 1                                 ",
"                    1 5 x +.D.F.F.F.a.w.| } / / ( :.M.Z.K.A.A.A.A.A.A.Z.Z.A.A.Z.N.u.:.{ z 6 1 1                                 ",
"                    1 5 b >.F.L.F.F.m.m.b.2.| / / } @.,.r.r.1.1.1.2.2.,.,.,.,.,.2.u.u.2.' q 4 <                                 ",
"                    1 5 x +.m.F.F.F.L.K.W.C.2.} / / ( ) ) ) ) ) ) ) ) ) ) ) ( ) #.u.Z.S.<.c 4 <                                 ",
"                    1 5 z [ >.y.n.F.H.Q.W.K.b.>.$.%.i u u u u i Q E W W W / ( } >.m.K.A.<.c 4 <                                 ",
"                        8 l ^ [ r.F.L.P.P.P.H.N.5.&.A t r r t y i E R R W ( -.u.N.K.K.C.;.l 4 <                                 ",
"                          3 6 x O.n.F.F.F.L.P.Q.U.8.I P J K L a p _ / / / | u.Z.Q.K.H.a.[ q 3 <                                 ",
"                          , 2 q ` O.r.i.a.D.P.Q.U.0.Y I U I U S %.$. . ...:.u.Z.Z.N.r.O.` e 2                                   ",
"                              6 q z ` | w.a.G.H.I.T.q.6.7.6.6.9.5.t.i.i.i.p.a.a.t.-.` z q 6                                     ",
"                                2 5 0 ~ | e.p.n.m.m.b.a.s.s.a.b.b.n.n.n.n.a.w.:.} ~ 7 4 1                                       ",
"                                  1 5 w ~ ( } o.O.+.+.+.+.+.+.+.+.+.+.+.O.o.} ( ~ 0 4 <                                         ",
"                                    4 5 0 0 q q l z z z z z z z z z z z z l q 0 6 5                                             ",
"                                      2 2 2 2 3 3 3 4 4 3 3 3 3 3 3 3 3 3 3 2 2 2 2                                             ",
"                                        1 < < < < < < < < < < < < < < < < < < 1 1                                               ",
"                                                                                                                                ",
"                                                                                                                                ",
"                                                                                                                                ",
"                                                                                                                                ",
"                                                                                                                                ",
"                                                                                                                                ",
"                                                                                                                                ",
"                                                                                                                                ",
"                                                                                                                                ",
"                                                                                                                                ",
"                                                                                                                                ",
"                                                                                                                                ",
"                                                                                                                                ",
"                                                                                                                                ",
"                              % % % % % % % % % % % % % % % % % % % % % % % % % % % %                                           ",
"                          % % % % % % % % % % % % % % % % % % % % % % % % % % % % % % % %                                       ",
"                        % % % % % % % % % % % % % % % % % % % % % % % % % % % % % % % % %                                       ",
"                      % % % % % % % % % % % % % % % % % % % % % % % % % % % % % % % % % % % %                                   ",
"                    % % % % % % % % % % % % % % % % % % % % % % % % % % % % % % % % % % % % % %                                 ",
"                    % % % % % % % % % % % % % % % % % % % % % % % % % % % % % % % % % % % % % %                                 ",
"                    % % % % % % % % % % % % % % % % % % % % % % % % % % % % % % % % % % % % % %                                 ",
"                    % % % % % % % % % % % % % % % % % % % % % % % % % % % % % % % % % % % % % %                                 ",
"                    % % % % % % % % % % % % % % % % % % % % % % % % % % % % % % % % % % % % % %                                 ",
"                    % % % % % % % % % % % % % % % % % % % % % % % % % % % % % % % % % % % % % %                                 ",
"                    % % % % % % % % % % % % % % % % % % % % % % % % % % % % % % % % % % % % % %                                 ",
"                    % % % % % % % % % % % % % % % % % % % % % % % % % % % % % % % % % % % % %                                   ",
"                        % % % % % % % % % % % % % % % % % % % % % % % % % % % % % % % % % %                                     ",
"                          % % % % % % % % % % % % % % % % % % % % % % % % % % % % % % % %                                       ",
"                          % % % % % % % % % % % % % % % % % % % % % % % % % % % % % % % %                                       "
};
