/* XPM */
static char *a4tqx_bxn7r[] = {
/* columns rows colors chars-per-pixel */
"64 64 182 2 ",
"   c None",
".  c #6B393F",
"X  c #6E3D42",
"o  c #703F43",
"O  c #764446",
"+  c #784646",
"@  c #7A4847",
"#  c #764649",
"$  c #784749",
"%  c #7A4A4C",
"&  c #804B49",
"*  c #87524A",
"=  c #8B544D",
"-  c #8F584C",
";  c #90574D",
":  c #925C4E",
">  c #8D5750",
",  c #8E5A52",
"<  c #895D5A",
"1  c #905E57",
"2  c #95604F",
"3  c #976453",
"4  c #9D6455",
"5  c #9E6850",
"6  c #93635C",
"7  c #98675A",
"8  c #99695C",
"9  c #A46754",
"0  c #A66A57",
"q  c #A86B57",
"w  c #A96E5A",
"e  c #AD7055",
"r  c #B37857",
"t  c #B4755C",
"y  c #B37B59",
"u  c #BD7C5F",
"i  c #966A63",
"p  c #996F66",
"a  c #996F68",
"s  c #9A7169",
"d  c #AC7461",
"f  c #BE7D60",
"g  c #B07D6A",
"h  c #A27B70",
"j  c #C47F5E",
"k  c #C07F60",
"l  c #BA815B",
"z  c #BE8362",
"x  c #BD8863",
"c  c #BE8D6D",
"v  c #B5846F",
"b  c #B38471",
"n  c #B78873",
"m  c #B88D79",
"M  c #BF9071",
"N  c #BD947E",
"B  c #C5815F",
"V  c #C68361",
"C  c #C98663",
"Z  c #CB8964",
"A  c #C48A6C",
"S  c #CC8D6B",
"D  c #D18F63",
"F  c #D08F69",
"G  c #CF9665",
"H  c #CF916E",
"J  c #D39266",
"K  c #DD9D67",
"L  c #D2936C",
"P  c #D5986F",
"I  c #DD9E69",
"U  c #C68E71",
"Y  c #C19170",
"T  c #CE9271",
"R  c #C0967C",
"E  c #C1987D",
"W  c #CB987A",
"Q  c #D19572",
"!  c #D59A74",
"~  c #D89C71",
"^  c #D59D7B",
"/  c #D89F79",
"(  c #DEA06B",
")  c #DEA570",
"_  c #DEA975",
"`  c #D7A27F",
"'  c #DAA37C",
"]  c #DFAA7B",
"[  c #E2A56C",
"{  c #E7AA6C",
"}  c #EBAE6C",
"|  c #EDB16E",
" . c #E0A674",
".. c #E3AA75",
"X. c #E8AF75",
"o. c #E3AC7D",
"O. c #EDB476",
"+. c #EDB678",
"@. c #EEB87B",
"#. c #B69180",
"$. c #BB9581",
"%. c #C19C87",
"&. c #CE9E81",
"*. c #C19D89",
"=. c #D19F80",
"-. c #C2A08C",
";. c #D7A381",
":. c #D9A582",
">. c #DDAB85",
",. c #DEAE8A",
"<. c #D6AA8A",
"1. c #DFB285",
"2. c #DFB18D",
"3. c #D7AE90",
"4. c #DAB394",
"5. c #DDBA9B",
"6. c #D4B499",
"7. c #E0AF86",
"8. c #E4B587",
"9. c #E9B783",
"0. c #EEBC84",
"q. c #E2B38B",
"w. c #E7B88A",
"e. c #EEBE89",
"r. c #F0BF86",
"t. c #E1B592",
"y. c #E4BA96",
"u. c #E8BB91",
"i. c #E4BC98",
"p. c #E8BD98",
"a. c #EFC18B",
"s. c #F0C28C",
"d. c #EDC294",
"f. c #E6C19E",
"g. c #EAC39D",
"h. c #EFC99D",
"j. c #F1C592",
"k. c #F4CA97",
"l. c #F1CB9D",
"z. c #E3C5A6",
"x. c #EBC6A1",
"c. c #EDCAA4",
"v. c #E3C6A8",
"b. c #E7C9A9",
"n. c #EECEAA",
"m. c #F1CDA0",
"M. c #F2CFA8",
"N. c #EFD0AC",
"B. c #F4D2A6",
"V. c #F2D4AE",
"C. c #F7D9AF",
"Z. c #F9DAAF",
"A. c #FAD6A4",
"S. c #F3D5B0",
"D. c #F2D5B0",
"F. c #F3D6B1",
"G. c #F3D7B3",
"H. c #F2D6B1",
"J. c #F4D8B3",
"K. c #F6D9B2",
"L. c #F3D8B4",
"P. c #F4D9B5",
"I. c #F4DAB5",
"U. c #F5DAB5",
"Y. c #F4DAB6",
"T. c #F4DAB7",
"R. c #F5DBB7",
"E. c #F4DAB6",
"W. c #F4DAB6",
"Q. c #F8DDB6",
"!. c #F8DDB7",
"~. c #F5DBB8",
"^. c #F5DCB8",
"/. c #F5DCB9",
"(. c #F6DDB9",
"). c #F5DCB9",
"_. c #F8DFBA",
"`. c #F8DFBB",
"'. c #F8DEB9",
"]. c #F8DFBA",
"[. c #F9E1BC",
"{. c #F9E0BC",
/* pixels */
"        X X X X X X X X X X X X X X X X X X X X X X X X X X X X X X X X X X X X X X X X X X X X X X X X X X X X X X X X         ",
"        X X X X X X X X X X X X X X X X X X X X X X X X X X X X X X X X X X X X X X X X X X X X X X X X X X X X X X X X         ",
"      X X X X X X X X X X X X X X X X X X X X X X X X X X X X X X X X X X X X X X X X X X X X X X X X X X X X X X X X X X       ",
"    X X X X X X X X X X . . . . . . . . . . . . . . . . . . X X X X X X X . . . . . . . . . . . . . . . . . . X X X X X X X     ",
"X X X X X X X X X X X X X X X X X X X X X X X X X X X X X X X X X X X X X X X X X X X X X X X X X X X X X X X X X X X X X X X X ",
"X X X X X o O O + @ % % % % % % % % % % % % % % % % % % % % % % % @ @ % % % % % % % % % % % % % % % % % % % % % # O o X X X X X ",
"X X X X X O @ * : 3 7 i a a a a a a a a a a a a a a a a s s a 8 7 3 3 7 i a a a a a a a a a a a a a a a s s s i < % O X X X X X ",
"X X X X X O * 5 y x Y E %.*.*.*.*.*.*.*.*.*.*.*.*.*.*.*.*.-.%.N c x x c N %.*.*.*.*.*.*.*.*.*.*.*.*.*.*.*.-.-.$.h < # X X X X X ",
"X X X X X + : y G _ 8.i.z.v.v.z.z.z.z.z.z.z.z.z.z.z.z.z.v.z.f.q.] ) _ 1.i.z.v.v.z.z.z.z.z.z.z.z.z.z.z.z.v.b.z.6.#.i % X X X X X ",
"X X X X X @ 3 x _ r.k.B.J.T.T.T.T.T.T.T.T.T.T.T.T.T.T.G.V.n.c.d.e.0.e.j.B.K.T.T.T.T.T.T.T.T.T.T.T.T.T.T.T.J.n.5.$.i % X X X X X ",
"X X X X X % 7 Y 8.k.A.Z.~.`.`.`.`.`.`.`.`.`.`.`.{.[.`.J.c.f.y.u.e.j.k.B.C.Q.`.`.`.`.`.`.`.`.`.`.`.{.[.`.K.M.g.<.n 6 % X X X X X ",
"X X X X X % i E i.B.Z.K.T.T.T.T.(.(.T.T.T.T.(.(.(.(.T.n.y.>.` >.u.l.B.C.K.T.T.~.~.(.T.T.T.T.(.(.(.(.(.T.n.p.>.T d , O X X X X X ",
"X X X X X % a %.z.K.~.T.G.G.G.G.V.V.V.V.V.V.G.G.G.G.N.f.>.Q T ` y.n.G.T.T.G.G.G.G.V.V.V.G.G.V.V.G.G.G.n.f.>.Q z 9 = O X X X X X ",
"X X X . X % a *.v.T.`.T.G.V.B.m.m.l.l.m.m.m.m.m.c.x.p.2.^ S S ^ y.N.T.(.T.G.V.B.m.m.l.l.m.m.m.m.m.c.g.p.2.` S u 9 = O X X X X X ",
"X X X . X % a *.v.T.`.~.G.B.l.j.a.a.a.a.a.a.a.e.w.q.>.^ H Z S ` y.N.T.(.T.G.B.l.d.a.a.a.a.a.s.a.e.q.8.;.^ Q Z u 9 = O X X X X X ",
"X X X . X % a *.z.T.`.~.G.m.j.0.+.O.O.+.+.+.+.O. .~ L S C C S ` y.N.T.(.T.V.m.a.0.+.O.O.+.+.+.+.O. .~ L S S C u 9 = O X X X X X ",
"X X X . X % a *.z.T.`.T.G.m.a.+.| } } | | | | { ( J Z V V V S ` i.N.L.(.T.V.l.e.O.| } } | | | | { I J Z C C C u 9 = O X X X X X ",
"X X X . X % a *.z.T.`.(.V.l.a.O.} } } } | | } { K J C B j V S ` i.N.L.(.T.V.l.e.O.} } } } | | } { K D C V C C u 9 = O X X X X X ",
"X X X . X % a *.z.T.`.(.G.m.a.O.} } } } | | | { I J C V B V S ` i.N.L.(.T.V.l.e.O.} } } | | | | { I J C C C C u 9 = O X X X X X ",
"X X X . X % a *.z.T.`.(.G.m.a.+.| } } | | | | { ( J Z V V V S ` i.n.L.(.T.V.l.e.O.| } } | | | | { I J Z C C C u 9 = O X X X X X ",
"X X X . X % a *.z.T.`.(.G.m.s.+.| } | | | | | { ( J Z V V V S ` i.N.T.(.~.G.l.a.O.| } | | | | | { I J Z C C C u 9 = O X X X X X ",
"X X X . X % a *.z.T.{.(.K.m.s.+.| | | | | | | { ( J Z V V V S ` y.n.T.(.(.J.m.s.O.| | | | | | | { I J Z C C C f 9 = O X X X X X ",
"X X X . X % a *.z.T.`.(.G.m.a.+.| } | | | | | { ( J Z V V V S ` i.N.T.(.T.V.l.a.O.| } | | | | | { I J Z C C C u 9 = O X X X X X ",
"X X X . X % a *.z.L.T.G.c.g.9.O.{ { { { { { { [ I J Z V V V S ;.p.N.L.L.V.c.d.9.X.{ { { { { { { [ K J C C C C f 9 = O X X X X X ",
"X X X . X % s -.v.G.V.x.y.q.] ) ( I I ( ( ( ( I J Z Z V V V S ;.p.N.G.n.f.t.7.] ( I I I I ( ( ( I J Z C C C C u 9 = O X X X X X ",
"X X X . X % s -.v.V.x.q.` ! L L J J J J J J J J Z Z C V V V S ;.p.N.N.f.,.` ! L J J J J J J J J J Z Z C C C C u 9 = O X X X X X ",
"X X X X X % a *.z.c.y.` S Z C Z Z Z Z Z Z Z Z Z C C C C V V S ;.p.n.c.t.^ S Z Z Z Z Z Z Z Z Z Z Z C C C C Z C u 9 = O X X X X X ",
"X X X X X % i N 4.y.>.Q C B B V V V V V V V V V V V C V V V S ^ 2.p.y.:.T V B V V V V V V V V V V V V V C C C u 9 = O X X X X X ",
"X X X X X $ 6 b &.;.^ S V j j B V V V V V V V V V V V B B V C T ^ :.;.! S B j j B V V V V V V V V V V V V C V u 9 * O X X X X X ",
"X X X X X O , d A T H Z V V V V V V V V V V V V V V V V V V C S S T T S C V V V V V V V V V V V V V V V C C C u 9 = O X X X X X ",
"X X X X X O = q V Z F S S S S S S S S S S S S S S S S S S S S S Z Z Z S S S S S S S S S S S S S S S S S S L S V w > O X X X X X ",
"X X X X X O = e B J ~ / ` ;.;.` ` ` ` ` ` ` ` ` ` ` ` ;.;.;.` ! P J J P ^ ` ;.;.` ` ;.;.` ` ` ` ` ` ` ` ;.:.;.W g 1 $ X X X X X ",
"X X X X X + : r J [ o.q.y.p.p.i.i.i.i.i.i.y.i.i.i.i.i.p.p.p.y.8. .( ( o.q.y.p.p.i.i.i.i.i.i.i.i.y.y.y.i.p.f.p.3.m 6 % X X X X X ",
"X X X X X + 2 l I O.a.h.n.N.N.N.N.N.n.n.n.n.N.N.N.N.n.n.N.n.c.d.9.O.O.e.h.n.N.N.n.n.N.N.N.N.N.N.N.n.n.n.V.V.n.5.$.i % X X X X X ",
"X X X X X % 3 x _ r.k.B.G.T.T.T.T.T.T.T.L.T.T.T.T.T.T.G.N.n.x.d.e.0.e.k.B.G.T.T.L.L.L.L.T.T.L.L.T.T.T.T.T.J.n.5.N i % X X X X X ",
"X X X X X % 7 M 8.k.B.C.T.(.(.(.(.(.(.(.(.(.(.(.(.(.(.G.x.i.t.w.e.d.l.B.C.T.(.(.(.(.(.(.(.(.(.(.(.(.(.(.G.c.i.<.b 6 % X X X X X ",
"X X X X X % i N i.B.C.K.L.L.L.T.T.T.T.T.T.T.T.T.(.(.L.c.t.;.` >.u.c.B.V.G.L.T.T.T.T.T.T.T.T.L.T.T.(.(.L.c.y.;.U d , O X X X X X ",
"X X X X X % a %.z.K.~.T.L.G.G.V.V.V.V.V.V.V.V.V.G.G.n.p.>.Q H ` y.n.G.T.L.L.G.G.V.V.V.V.V.V.V.V.V.G.G.n.p.>.Q f 9 = O X X X X X ",
"X X X . X % a *.v.T.`.T.G.V.B.m.l.l.l.l.l.l.l.l.h.g.p.,.^ S S ^ y.N.T.(.L.G.V.B.m.l.l.l.l.l.l.l.h.h.f.p.,.^ S u 9 = O X X X X X ",
"X X X . X % a *.v.T.`.(.G.B.l.a.e.e.e.e.e.a.a.e.8.7.;.^ S Z S ` y.N.L.(.T.G.B.l.a.e.e.e.e.a.a.e.e.8.>.;.^ Q Z u 9 = O X X X X X ",
"X X X . X % a *.z.T.`.T.G.m.d.@.O.O.O.O.O.O.O.O. .~ L S C C S ` y.N.T.(.T.V.m.a.@.O.O.O.O.O.O.O.X. .~ H S S C u 9 = O X X X X X ",
"X X X . X % a *.z.T.`.~.V.m.a.+.| } } | | | | { I J Z V V V S ` i.N.T.(.T.V.l.e.O.} } } | | | | { I J C C C C u 9 = O X X X X X ",
"X X X . X % a *.z.T.`.~.V.l.a.O.} } } } } | } { K J C B j V S ` i.N.T.(.T.V.l.e.O.} } } } } | } { K D C V C C u 9 = O X X X X X ",
"X X X . X % a *.z.T.`.(.V.m.a.O.} } } } | | | { I J C V B V S ` i.n.T.(.T.V.l.e.O.} } } } | | | { I J C C C C u 9 = O X X X X X ",
"X X X . X % a *.z.T.`.(.V.m.a.+.| } | | | | | { I J Z V V V S ` i.n.L.(.T.V.l.e.O.| } | | | | | { I J Z C C C u 9 = O X X X X X ",
"X X X . X % a *.z.T.{.(.G.m.s.+.| | | | | | | { ( J Z V V V S ` y.n.T.(.~.G.l.a.O.| | | | | | | { I J Z C C C u 9 = O X X X X X ",
"X X X . X % a *.z.T.[.(.K.m.s.@.| | | | | | | { ( J Z V V V S ` i.N.T.(.(.K.m.s.O.| | | | | | | { I J Z C C C u 9 = O X X X X X ",
"X X X . X % a *.z.T.`.(.G.m.a.+.| } | | | | | { ( J Z V V V S ` i.N.T.(.T.V.l.e.O.| } } | | | | { I J Z C C C f 9 = O X X X X X ",
"X X X . X % a *.z.L.T.V.c.d.9.X.{ { { { { { { [ I J Z V V V S ;.p.N.L.L.N.c.d.9.X.{ { { { { { { [ K J C C C C u 9 = O X X X X X ",
"X X X . X % s -.v.G.V.f.t.>.] ( I I I I I I I K J Z C V V V S ;.p.N.G.n.f.t.>.] ( I I I I I I I K J Z C C C C u 9 = O X X X X X ",
"X X X . X % s -.v.V.x.,.^ Q L J J J J J J J J J Z Z C V V C S ;.p.N.N.f.>.^ Q L J J J J J J J J D Z Z C C C C u 9 = O X X X X X ",
"X X X X X % a *.z.c.y.` S C C Z Z Z Z Z Z Z Z C C C C V V C S ;.i.c.x.t.^ S C C Z Z Z Z Z Z Z Z C C C C C Z C u 9 = O X X X X X ",
"X X X X X % i N 4.y.>.Q Z V V C C C C C C C C C C C C C C C S ^ 2.p.y.:.Q C V V C C C C C C C C C C C C C Z C f 9 = O X X X X X ",
"X X X X X $ 6 v =.:./ L C C C C C C C C C C C C C C C C C C S Q ` >.;.! S C C C C C C C C C C C C C C Z Z Z Z k q = O X X X X X ",
"X X X X X O , d A L L Z C C C C C C C C C C C C C C C C C C C S S T H S Z C C C C C C C C C C C C C C C C Z C u 9 = O X X X X X ",
"X X X X X O * 4 t f k f u u u u u u u u u u u u u u u u u u u f f f f u u u u u u u u u u u u u u u u u f k u t 4 * O X X X X X ",
"X X X X X O & ; 4 9 9 9 9 9 9 9 9 9 9 9 9 9 9 9 9 9 9 9 9 9 9 9 9 9 9 9 9 9 9 9 9 9 9 9 9 9 9 9 9 9 9 9 9 q 9 4 : & O X X X X X ",
"X X X X X O + & * * = = = = = = = = = = = = = = = = = = = = = = * * * * = = = = = = = = = = = = = = = = = = = * & + O X X X X X ",
"X X X X X o O O O O O O O O O O O O O O O O O O O O O O O O O O O O O O O O O O O O O O O O O O O O O O O O O O O O o X X X X X ",
"X X X X X X X X X X X X X X X X X X X X X X X X X X X X X X X X X X X X X X X X X X X X X X X X X X X X X X X X X X X X X X X X ",
"    X X X X X X X X X X X X X X X X X X X X X X X X X X X X X X X X X X X X X X X X X X X X X X X X X X X X X X X X X X X X     ",
"      X X X X X X X X X X X X X X X X X X X X X X X X X X X X X X X X X X X X X X X X X X X X X X X X X X X X X X X X X X       ",
"        X X X X X X X X X X X X X X X X X X X X X X X X X X X X X X X X X X X X X X X X X X X X X X X X X X X X X X X X         ",
"        X X X X X X X X X X X X X X X X X X X X X X X X X X X X X X X X X X X X X X X X X X X X X X X X X X X X X X X X         "
};
